<svg width="36" height="36" viewBox="0 0 36 36" fill="none" xmlns="http://www.w3.org/2000/svg">
<path d="M28.5668 21.903C27.8483 21.1549 26.9816 20.7549 26.0631 20.7549C25.152 20.7549 24.278 21.1475 23.5299 21.8956L21.1892 24.2289C20.9966 24.1252 20.804 24.0289 20.6188 23.9326C20.3521 23.7993 20.1003 23.6734 19.8855 23.54C17.693 22.1475 15.7004 20.3327 13.7893 17.9846C12.8634 16.8143 12.2412 15.8291 11.7894 14.8291C12.3968 14.2736 12.9597 13.6958 13.5079 13.1403C13.7153 12.9329 13.9227 12.7181 14.1301 12.5107C15.6856 10.9551 15.6856 8.94037 14.1301 7.38485L12.1079 5.36268C11.8783 5.13305 11.6412 4.89602 11.419 4.65899C10.9746 4.19974 10.5079 3.72568 10.0265 3.28125C9.30797 2.57015 8.44873 2.19238 7.54505 2.19238C6.64137 2.19238 5.76731 2.57015 5.02659 3.28125C5.01918 3.28865 5.01918 3.28865 5.01178 3.29606L2.49332 5.83674C1.54519 6.78487 1.00446 7.9404 0.885948 9.2811C0.708175 11.444 1.3452 13.4588 1.83407 14.7773C3.03405 18.0142 4.8266 21.0142 7.50061 24.2289C10.745 28.1029 14.6486 31.1621 19.1077 33.3176C20.8114 34.125 23.0854 35.0805 25.6261 35.2435C25.7817 35.2509 25.9446 35.2583 26.0928 35.2583C27.8038 35.2583 29.2408 34.6435 30.3667 33.4213C30.3741 33.4065 30.3889 33.3991 30.3964 33.3842C30.7815 32.9176 31.226 32.4954 31.6926 32.0435C32.0111 31.7398 32.337 31.4213 32.6556 31.088C33.3889 30.3251 33.7741 29.4362 33.7741 28.5251C33.7741 27.6066 33.3815 26.7251 32.6333 25.9844L28.5668 21.903ZM31.2186 29.7028C31.2111 29.7028 31.2111 29.7103 31.2186 29.7028C30.9297 30.0139 30.6334 30.2954 30.3149 30.6065C29.8334 31.0658 29.3445 31.5472 28.8853 32.088C28.1371 32.888 27.2557 33.2657 26.1002 33.2657C25.9891 33.2657 25.8705 33.2657 25.7594 33.2583C23.5595 33.1176 21.5151 32.2583 19.9818 31.525C15.7893 29.4954 12.1079 26.614 9.04872 22.9623C6.52285 19.9179 4.834 17.1031 3.71551 14.081C3.02664 12.2366 2.77479 10.7996 2.8859 9.44406C2.95997 8.57742 3.2933 7.85892 3.9081 7.24412L6.43396 4.71825C6.79692 4.37752 7.18209 4.19234 7.55986 4.19234C8.02652 4.19234 8.40429 4.47381 8.64132 4.71084C8.64873 4.71825 8.65613 4.72566 8.66354 4.73306C9.11538 5.15528 9.545 5.5923 9.99684 6.05896C10.2265 6.29599 10.4635 6.53302 10.7005 6.77746L12.7227 8.79963C13.5079 9.5848 13.5079 10.3107 12.7227 11.0959C12.5079 11.3107 12.3005 11.5255 12.0857 11.7329C11.4635 12.3699 10.8709 12.9625 10.2265 13.5403C10.2117 13.5551 10.1968 13.5625 10.1894 13.5773C9.55241 14.2143 9.67092 14.8365 9.80425 15.2587C9.81166 15.281 9.81907 15.3032 9.82648 15.3254C10.3524 16.5994 11.0931 17.7994 12.219 19.229L12.2264 19.2364C14.2708 21.7549 16.4263 23.7178 18.804 25.2215C19.1077 25.4141 19.4188 25.5696 19.7151 25.7178C19.9818 25.8511 20.2336 25.977 20.4484 26.1103C20.4781 26.1252 20.5077 26.1474 20.5373 26.1622C20.7892 26.2881 21.0262 26.3474 21.2706 26.3474C21.8854 26.3474 22.2706 25.9622 22.3965 25.8363L24.9298 23.303C25.1817 23.0511 25.5817 22.7475 26.0483 22.7475C26.5076 22.7475 26.8853 23.0363 27.115 23.2882C27.1224 23.2956 27.1224 23.2956 27.1298 23.303L31.2111 27.3844C31.9741 28.1399 31.9741 28.9177 31.2186 29.7028Z" fill="white"/>
<path d="M19.7958 8.51057C21.7365 8.83648 23.4994 9.75498 24.9068 11.1624C26.3141 12.5697 27.2252 14.3326 27.5585 16.2733C27.64 16.7622 28.0622 17.103 28.5437 17.103C28.603 17.103 28.6548 17.0955 28.7141 17.0881C29.2622 16.9993 29.6252 16.4807 29.5363 15.9326C29.1363 13.5845 28.0252 11.4438 26.3289 9.74757C24.6327 8.05132 22.492 6.94023 20.1439 6.54024C19.5958 6.45136 19.0847 6.81431 18.9884 7.35504C18.8921 7.89577 19.2476 8.42168 19.7958 8.51057Z" fill="white"/>
<path d="M35.8856 15.6437C35.2264 11.7771 33.4042 8.25864 30.6043 5.45871C27.8043 2.65878 24.2859 0.836598 20.4193 0.177355C19.8786 0.0810606 19.3675 0.451422 19.2712 0.99215C19.1823 1.54029 19.5453 2.05138 20.0934 2.14768C23.5452 2.73285 26.6932 4.36985 29.1969 6.86608C31.7005 9.36973 33.3301 12.5178 33.9153 15.9696C33.9968 16.4584 34.419 16.7992 34.9004 16.7992C34.9597 16.7992 35.0116 16.7918 35.0708 16.7844C35.6115 16.7029 35.9819 16.1844 35.8856 15.6437Z" fill="white"/>
</svg>
