<svg width="43" height="42" viewBox="0 0 43 42" fill="none" xmlns="http://www.w3.org/2000/svg">
<path d="M18.2392 12.3319C16.0105 13.1325 14.2775 14.9677 13.6035 17.241C13.535 17.4722 13.6015 17.7188 13.7771 17.8845C13.953 18.0506 14.2033 18.1029 14.4306 18.0212L14.4313 18.0209L24.7833 14.2872C25.0109 14.2052 25.1706 14.005 25.2001 13.7648C25.2295 13.525 25.1232 13.2927 24.9229 13.1585C22.9594 11.843 20.4608 11.5339 18.2392 12.3319ZM14.7742 16.8597C15.4735 15.1906 16.8521 13.8673 18.5691 13.2506C20.28 12.636 22.18 12.7767 23.7782 13.6122L14.7742 16.8597Z" fill="#257AAA"/>
<path d="M17.4062 27.9886C17.3762 28.2283 17.4819 28.4609 17.6818 28.5956C19.6483 29.9204 22.1529 30.2333 24.3816 29.4328C26.6032 28.6347 28.3341 26.8065 29.0117 24.5422C29.0808 24.3111 29.0149 24.0643 28.8396 23.898C28.6639 23.7314 28.4134 23.6786 28.1858 23.7601L17.8241 27.4671C17.8237 27.4672 17.8236 27.4672 17.8233 27.4673C17.596 27.5491 17.4362 27.7488 17.4062 27.9886ZM27.8399 24.9206C27.1387 26.582 25.7625 27.8996 24.0516 28.5142C22.3346 29.131 20.429 28.9873 18.8275 28.1449L27.8399 24.9206Z" fill="#257AAA"/>
<path d="M34.5951 11.7988L32.6928 12.4822C32.6811 12.4058 32.6786 12.327 32.6865 12.2468C32.81 11.01 32.3181 9.79287 31.3705 8.99106C30.423 8.18915 29.1413 7.90516 27.9419 8.23141C27.4956 8.35284 27.0335 8.13497 26.8432 7.71343C26.3317 6.58072 25.2971 5.77269 24.0756 5.55191C22.854 5.33121 21.602 5.72612 20.7266 6.60834C20.4006 6.9366 19.8916 6.97902 19.5159 6.70911C18.5066 5.98382 17.2065 5.80137 16.0383 6.221C14.8701 6.64063 13.9833 7.60856 13.6662 8.81034C13.5483 9.25758 13.1284 9.54879 12.6682 9.50296C11.4314 9.37948 10.2143 9.87152 9.41244 10.819C8.61056 11.7666 8.32662 13.0483 8.65284 14.2476C8.77428 14.6939 8.55641 15.156 8.13486 15.3463C7.0021 15.8578 6.19401 16.8925 5.97337 18.114C5.75258 19.3355 6.14755 20.5874 7.02979 21.463C7.087 21.5198 7.13449 21.5825 7.17415 21.6488L5.27244 22.3319C4.69196 22.5405 4.38932 23.1824 4.59785 23.7629L6.58492 29.2946C6.79345 29.8751 7.43538 30.1778 8.01588 29.9692L9.9179 29.286C9.92951 29.3623 9.93244 29.4411 9.92446 29.5213C9.80099 30.7581 10.2929 31.9752 11.2405 32.777C12.188 33.5789 13.4697 33.8629 14.6691 33.5367C15.1154 33.4152 15.5775 33.6331 15.7678 34.0547C16.2793 35.1874 17.3139 35.9954 18.5354 36.2162C19.7572 36.4368 21.009 36.0419 21.8844 35.1597C22.2105 34.8315 22.7194 34.789 23.0951 35.059C24.1044 35.7843 25.4044 35.9667 26.5726 35.547C27.7409 35.1274 28.6276 34.1594 28.9448 32.9577C29.0628 32.5104 29.4827 32.2193 29.9428 32.2651C31.1797 32.3886 32.3966 31.8965 33.1985 30.949C34.0004 30.0014 34.2844 28.7198 33.9581 27.5204C33.8367 27.0742 34.0546 26.612 34.4761 26.4217C35.6089 25.9102 36.417 24.8756 36.6376 23.654C36.8584 22.4325 36.4634 21.1806 35.5812 20.3051C35.524 20.2483 35.4763 20.1855 35.4367 20.1193L37.3385 19.4362C37.919 19.2276 38.2216 18.5857 38.0131 18.0052L36.026 12.4735C35.8176 11.8929 35.1756 11.5903 34.5951 11.7988ZM6.93389 18.2875C7.09745 17.3821 7.6965 16.6152 8.53654 16.2359C9.39774 15.847 9.84276 14.9031 9.59473 13.9913C9.35284 13.102 9.56325 12.1518 10.1576 11.4495C10.7519 10.7472 11.6543 10.3826 12.5713 10.4741C13.5118 10.568 14.369 9.97286 14.61 9.05935C14.8452 8.16818 15.5025 7.45052 16.3683 7.13951C17.2342 6.8285 18.1979 6.96389 18.9464 7.50167C19.7137 8.05297 20.7538 7.96646 21.4193 7.29572C22.0685 6.64163 22.9966 6.34871 23.902 6.51229C24.8074 6.67593 25.5744 7.27505 25.9536 8.11496C26.3424 8.97619 27.2864 9.42118 28.1982 9.17315C29.0875 8.93124 30.0377 9.14165 30.74 9.73605C31.4424 10.3303 31.8069 11.2327 31.7155 12.1498C31.6926 12.3792 31.7117 12.6034 31.7656 12.8152L29.7722 13.5313C28.6233 12.2088 27.1684 11.1576 25.5112 10.4867C25.2614 10.3855 24.9768 10.506 24.8757 10.7559C24.7746 11.0057 24.8951 11.2902 25.1449 11.3913C26.5375 11.9551 27.7728 12.8138 28.7787 13.8882L11.087 20.2433C11.3404 16.2915 13.8862 12.669 17.8439 11.2474C19.5196 10.6454 21.3266 10.4892 23.0695 10.7957C23.3349 10.8423 23.588 10.6651 23.6347 10.3996C23.6814 10.1342 23.504 9.88114 23.2386 9.83448C21.3288 9.49864 19.3492 9.6695 17.5139 10.3288C13.0397 11.9359 10.2125 16.1109 10.0936 20.6001L8.10235 21.3154C8.00909 21.1177 7.88103 20.9327 7.71732 20.7702C7.06314 20.121 6.77025 19.1929 6.93389 18.2875ZM35.6771 23.4805C35.5136 24.386 34.9145 25.1529 34.0745 25.5322C33.2133 25.921 32.7682 26.865 33.0163 27.7768C33.2582 28.666 33.0478 29.6162 32.4534 30.3186C31.859 31.0208 30.9567 31.3855 30.0397 31.294C29.0994 31.2003 28.2421 31.7953 28.001 32.7087C27.7658 33.5999 27.1085 34.3176 26.2427 34.6286C25.3768 34.9396 24.4131 34.8043 23.6646 34.2664C23.137 33.8874 22.4805 33.8099 21.9054 34.0165C21.6441 34.1103 21.3996 34.2628 21.1917 34.4724C20.5425 35.1265 19.6144 35.4193 18.709 35.2558C17.8036 35.0922 17.0366 34.493 16.6574 33.6531C16.2686 32.7919 15.3246 32.3469 14.4128 32.5949C13.5235 32.8368 12.5733 32.6264 11.871 32.032C11.1686 31.4378 10.8041 30.5354 10.8955 29.6183C10.9184 29.3889 10.8997 29.1645 10.8458 28.9527L12.8375 28.2372C15.7859 31.6244 20.623 33.0464 25.0971 31.4393C29.5712 29.8321 32.3984 25.657 32.5173 21.168L34.5083 20.4528C34.6015 20.6505 34.73 20.8354 34.8937 20.9978C35.5479 21.6471 35.8407 22.5751 35.6771 23.4805ZM37.0946 18.3352C37.1211 18.4091 37.0825 18.491 37.0086 18.5175L17.3511 25.5788C17.0974 25.6699 16.9657 25.9494 17.0568 26.203C17.1479 26.4567 17.4274 26.5884 17.681 26.4973L31.5236 21.5249C31.2703 25.4766 28.7247 29.099 24.7671 30.5207C20.8094 31.9423 16.5402 30.768 13.8302 27.8807L15.5268 27.2712C15.7805 27.1801 15.9122 26.9006 15.8211 26.647C15.73 26.3933 15.4505 26.2616 15.1968 26.3527L7.68593 29.0507C7.61196 29.0773 7.53012 29.0387 7.50355 28.9647L5.51647 23.433C5.4899 23.359 5.52849 23.2772 5.60245 23.2506L34.9251 12.7175C34.9991 12.6909 35.0809 12.7295 35.1075 12.8035L37.0946 18.3352Z" fill="#257AAA"/>
<path d="M21.9827 18.0738C21.729 18.1649 21.5973 18.4444 21.6884 18.698L22.9922 22.3276C23.0833 22.5813 23.3628 22.713 23.6165 22.6219C23.8701 22.5308 24.0019 22.2513 23.9108 21.9977L22.607 18.3681C22.5158 18.1144 22.2363 17.9827 21.9827 18.0738Z" fill="#257AAA"/>
<path d="M26.7483 16.3614C26.4946 16.4525 26.3629 16.732 26.454 16.9856L27.7578 20.6152C27.849 20.8689 28.1284 21.0006 28.3821 20.9095C28.6357 20.8184 28.7675 20.5389 28.6764 20.2853L27.3726 16.6557C27.2815 16.402 27.002 16.2703 26.7483 16.3614Z" fill="#257AAA"/>
<path d="M25.5151 17.8711C25.7688 17.78 25.9005 17.5005 25.8094 17.2469C25.7183 16.9932 25.4388 16.8615 25.1851 16.9526L23.7249 17.4771C23.4712 17.5682 23.3395 17.8477 23.4306 18.1014L24.7248 21.7043C24.816 21.958 25.0954 22.0897 25.3491 21.9986C25.6028 21.9075 25.7345 21.628 25.6434 21.3744L25.149 19.998L26.0339 19.6801C26.2876 19.589 26.4194 19.3096 26.3282 19.0559C26.2371 18.8022 25.9576 18.6705 25.704 18.7616L24.819 19.0795L24.5141 18.2307L25.5151 17.8712L25.5151 17.8711Z" fill="#257AAA"/>
<path d="M13.6797 22.1301C13.9333 22.039 14.0651 21.7595 13.9739 21.5059C13.8828 21.2522 13.6033 21.1205 13.3497 21.2116L11.8343 21.7559C11.5806 21.8471 11.4488 22.1265 11.54 22.3802L12.8319 25.9766C12.923 26.2303 13.2025 26.362 13.4561 26.2709L14.9715 25.7265C15.2252 25.6354 15.3569 25.3559 15.2658 25.1023C15.1747 24.8486 14.8952 24.7169 14.6416 24.808L13.5855 25.1874L13.2695 24.3077L14.2139 23.9685C14.4676 23.8774 14.5993 23.598 14.5082 23.3442C14.417 23.0905 14.1376 22.9588 13.8839 23.0499L12.9395 23.3891L12.6236 22.5095L13.6797 22.1301Z" fill="#257AAA"/>
<path d="M30.1776 16.2039C30.4313 16.1127 30.5631 15.8332 30.472 15.5796C30.3809 15.3259 30.1014 15.1942 29.8477 15.2853L28.3323 15.8297C28.0786 15.9208 27.9469 16.2002 28.038 16.4539L29.3299 20.0503C29.421 20.304 29.7005 20.4357 29.9542 20.3446L31.4695 19.8003C31.7232 19.7092 31.855 19.4297 31.7639 19.176C31.6728 18.9223 31.3933 18.7906 31.1396 18.8818L30.0835 19.2611L29.7675 18.3815L30.7119 18.0423C30.9656 17.9511 31.0973 17.6717 31.0062 17.418C30.915 17.1643 30.6355 17.0326 30.3819 17.1237L29.4375 17.4629L29.1215 16.5832L30.1776 16.2039Z" fill="#257AAA"/>
<path d="M32.4452 14.4361L31.4476 14.7945C31.3256 14.8383 31.2261 14.9288 31.1709 15.0461C31.1158 15.1634 31.1095 15.2978 31.1536 15.4197L31.1545 15.4223L31.1546 15.4224C31.1546 15.4224 32.4226 18.9427 32.4386 18.9694C32.4861 19.0775 32.5709 19.1653 32.6785 19.2156C32.7953 19.27 32.9287 19.2762 33.05 19.2327L33.0517 19.232C33.0818 19.2211 33.7922 18.9628 34.0748 18.8557C35.1368 18.453 35.5782 17.2439 35.1244 15.9806C34.6473 14.6526 33.5706 14.0319 32.4452 14.4361ZM33.7288 17.943C33.602 17.9911 33.3804 18.0728 33.1768 18.1473C33.0264 17.7326 32.8126 17.1431 32.7056 16.8451C32.616 16.5958 32.3936 15.9798 32.2377 15.5479L32.7751 15.3548C33.6688 15.0338 34.0961 16.0052 34.2058 16.3106C34.5228 17.1932 34.1946 17.7664 33.7288 17.943Z" fill="#257AAA"/>
<path d="M11.5602 25.4579C11.3073 25.3647 11.0267 25.4944 10.9336 25.7473C10.9157 25.7959 10.8944 25.8431 10.8701 25.8875C10.7465 26.1148 10.5437 26.2803 10.2673 26.3796C9.51985 26.6481 8.69343 26.2585 8.42495 25.511C8.15647 24.7636 8.54603 23.9371 9.29349 23.6686C9.56511 23.5711 9.85583 23.5569 10.1341 23.6278C10.3953 23.6942 10.661 23.5365 10.7275 23.2752C10.7939 23.014 10.6361 22.7484 10.3749 22.6819C9.90718 22.5627 9.41917 22.5863 8.96352 22.75C7.70958 23.2005 7.0559 24.587 7.50635 25.841C7.95678 27.095 9.34335 27.7486 10.5973 27.2982C11.0986 27.1181 11.4895 26.7916 11.7275 26.354C11.7743 26.268 11.8153 26.1773 11.8496 26.0845C11.9426 25.8316 11.8131 25.5511 11.5602 25.4579Z" fill="#257AAA"/>
<path d="M20.3836 18.6477L18.3792 19.3677C18.1255 19.4589 17.9938 19.7383 18.0849 19.992C18.176 20.2456 18.4555 20.3774 18.7091 20.2863L19.248 20.0927L20.3868 23.263C20.4779 23.5167 20.7574 23.6484 21.011 23.5573C21.2646 23.4662 21.3964 23.1867 21.3053 22.933L20.1665 19.7628L20.7135 19.5663C20.9672 19.4752 21.0989 19.1957 21.0078 18.942C20.9167 18.6884 20.6373 18.5566 20.3836 18.6477Z" fill="#257AAA"/>
<path d="M17.9806 21.0948C17.7028 20.3214 16.8235 19.9268 16.0207 20.2152L15.0563 20.5616C15.0561 20.5617 15.0559 20.5617 15.0556 20.5618C15.0555 20.5619 15.0553 20.562 15.055 20.5621C14.8013 20.6532 14.6696 20.9327 14.7607 21.1863L16.0645 24.8159C16.1556 25.0696 16.4351 25.2013 16.6888 25.1102C16.9425 25.0191 17.0742 24.7396 16.9831 24.4859L16.6193 23.4734L18.2504 24.3733C18.3782 24.4439 18.5239 24.451 18.6514 24.4053C18.7591 24.3666 18.8538 24.2899 18.9134 24.1818C19.0437 23.9458 18.9579 23.649 18.7219 23.5188L17.4313 22.8066C17.9645 22.4169 18.2072 21.7258 17.9806 21.0948ZM16.6984 22.1018C16.5812 22.1439 16.3835 22.2158 16.1979 22.2834C16.1319 22.1026 15.9156 21.5045 15.8469 21.3148L16.3507 21.1338C16.642 21.0291 16.9677 21.1624 17.062 21.4247C17.1562 21.6871 16.9897 21.9971 16.6984 22.1018Z" fill="#257AAA"/>
</svg>
