<svg width="37" height="26" viewBox="0 0 37 26" fill="none" xmlns="http://www.w3.org/2000/svg">
<path d="M33.1303 0.200684H4.00429C2.29524 0.200684 0.898438 1.59135 0.898438 3.30654V21.9417C0.898438 23.6575 2.29614 25.0475 4.00429 25.0475H33.1303C34.8394 25.0475 36.2362 23.6569 36.2362 21.9417V3.30654C36.2362 1.59093 34.8387 0.200684 33.1303 0.200684ZM32.6534 2.27126C31.6493 3.27873 19.8542 15.1122 19.3696 15.5984C18.9649 16.0044 18.17 16.0047 17.765 15.5984L4.48122 2.27126H32.6534ZM2.96901 21.561V3.68718L11.877 12.6241L2.96901 21.561ZM4.48122 22.977L13.3387 14.0906L16.2986 17.0602C17.5115 18.2771 19.6236 18.2766 20.8361 17.0602L23.796 14.0907L32.6534 22.977H4.48122ZM34.1656 21.561L25.2577 12.6241L34.1656 3.68718V21.561Z" fill="white"/>
</svg>
