<svg width="67" height="67" viewBox="0 0 67 67" fill="none" xmlns="http://www.w3.org/2000/svg">
<path fill-rule="evenodd" clip-rule="evenodd" d="M23.4963 30.1176C26.8799 31.1449 29.3821 34.1995 29.5903 37.8681H29.6045V38.3507L29.605 38.3648L29.6045 38.3785V55.4122H12.3775V38.3785L12.377 38.3648L12.3775 38.3507V37.8681H12.3917C12.6075 34.0703 15.282 30.9306 18.8476 30.0167C16.4173 29.0407 14.701 26.6622 14.701 23.8819C14.701 20.2324 17.6584 17.2737 21.3063 17.2737C24.9542 17.2737 27.9116 20.2324 27.9116 23.8819C27.9116 26.7636 26.0678 29.2135 23.4963 30.1176Z" fill="#5DA2DA"/>
<path fill-rule="evenodd" clip-rule="evenodd" d="M48.0385 30.0931C51.6259 30.9928 54.3206 34.1423 54.537 37.9559H54.5511V38.4385L54.5517 38.4526L54.5511 38.4663L54.4307 55.5197L46.2191 59.1523L37.2031 55.5197L37.3241 38.4663V38.4526V38.4385V37.9559H37.3388C37.5514 34.2071 40.1589 31.0996 43.6547 30.141C41.0489 29.2561 39.174 26.7882 39.174 23.8819C39.174 20.2324 42.1314 17.2737 45.7793 17.2737C49.4272 17.2737 52.3846 20.2324 52.3846 23.8819C52.3846 26.7375 50.574 29.1699 48.0385 30.0931Z" fill="#80B959"/>
<path fill-rule="evenodd" clip-rule="evenodd" d="M37.7106 36.3058C40.1966 37.7072 41.9167 40.3071 42.0878 43.3219H42.1025V43.8044V43.8186V43.8322V60.866H24.875V43.8322V43.8186V43.8044V43.3219H24.8897C25.0609 40.3071 26.7815 37.7072 29.2669 36.3058C27.8106 35.0937 26.8835 33.2676 26.8835 31.2245C26.8835 27.575 29.8408 24.6163 33.4888 24.6163C37.1367 24.6163 40.0941 27.575 40.0941 31.2245C40.0941 33.2676 39.167 35.0937 37.7106 36.3058Z" fill="#CD3539"/>
<path fill-rule="evenodd" clip-rule="evenodd" d="M46.447 58.0159C43.1959 50.1487 38.2344 47.7228 30.1924 46.2604C26.3101 45.587 23.8252 44.8099 20.15 43.3083C17.8723 42.3764 14.9215 40.2531 15.2839 43.5155C15.6464 46.5712 23.6922 50.4742 23.574 50.8396C18.5514 53.0637 8.0731 42.5345 4.17444 37.3228L0.325931 31.1907C0.112277 30.9333 0.103008 30.7763 0.0703053 31.2899C0.0239771 32.0091 0 32.7349 0 33.4655C0 51.9481 14.9765 66.9311 33.4511 66.9311C51.9257 66.9311 66.9017 51.9481 66.9017 33.4655C66.9017 14.983 51.9257 0 33.4511 0C17.0635 0 3.42992 11.7899 0.558664 27.3536C1.90654 30.0434 3.33727 32.3668 5.20566 34.7366C5.18712 34.3151 5.17622 33.8914 5.17622 33.4655C5.17622 17.8429 17.8353 5.17845 33.4511 5.17845C49.067 5.17845 61.7261 17.8429 61.7261 33.4655C61.7261 44.3595 55.5693 53.8135 46.5484 58.5393C46.5168 58.3758 46.483 58.2018 46.447 58.0159Z" fill="white"/>
</svg>
