<svg width="51" height="50" viewBox="0 0 51 50" fill="none" xmlns="http://www.w3.org/2000/svg">
<path d="M18.5217 42.6753C18.7133 43.0619 18.5552 43.5307 18.1686 43.7223C18.0571 43.7775 17.9388 43.8037 17.8223 43.8037C17.5348 43.8037 17.2581 43.6443 17.1217 43.3692C16.2852 41.6815 15.4464 40.4277 14.3633 39.2584C13.3041 39.5127 12.1149 39.7237 10.666 39.9157C10.6543 39.9173 10.6425 39.9186 10.6307 39.9196C8.60223 40.0945 6.51932 40.1712 5.28739 39.0413C4.6161 38.4255 4.27567 37.5239 4.27557 36.3616C4.27557 35.5958 4.35302 34.4575 4.42802 33.3566C4.50897 32.1666 4.59276 30.9362 4.57304 30.2597C4.56181 29.8753 4.15175 29.6979 3.17509 29.4219C2.8995 29.344 2.61454 29.2634 2.36093 29.1614C1.84637 28.9546 1.13319 28.5873 0.87948 27.789C0.626258 26.9921 0.911316 26.0203 1.8036 24.638C2.16337 24.0874 2.5035 23.5795 2.8036 23.1314C3.63397 21.8914 4.49266 20.6093 4.50311 20.1961C4.51679 19.6629 4.31591 19.11 4.08339 18.4696C3.87098 17.8848 3.63026 17.2219 3.52899 16.4707C3.02274 12.7169 4.09813 9.22501 6.63886 6.37266C9.93661 2.67042 15.3711 0.433309 20.8183 0.534285C27.0332 0.649617 32.5642 3.32022 35.6141 7.67813C37.7485 10.7283 38.6708 14.1112 38.3551 17.7329C38.0903 20.7693 36.9905 23.9573 34.9927 27.4789C34.6309 28.1168 34.3123 28.7753 34.0458 29.436C33.8844 29.836 33.4294 30.0298 33.0291 29.8684C32.6289 29.7069 32.4353 29.2518 32.5968 28.8516C32.889 28.1271 33.2378 27.4059 33.6336 26.708C37.6678 19.597 37.8967 13.6653 34.3338 8.57403C31.5696 4.62413 26.5062 2.20264 20.7893 2.09649C15.86 2.00645 10.763 4.09151 7.80546 7.41192C5.57743 9.91339 4.63388 12.9737 5.07723 16.2619C5.15614 16.8466 5.35731 17.4006 5.55184 17.9363C5.81444 18.6596 6.08612 19.4074 6.06483 20.2358C6.04286 21.1021 5.35341 22.1316 4.10155 24.0008C3.8038 24.4454 3.4662 24.9494 3.11376 25.489C2.28954 26.7659 2.33466 27.2102 2.36825 27.3158C2.41786 27.4719 2.70839 27.6172 2.94345 27.7117C3.11962 27.7825 3.35282 27.8484 3.59979 27.9183C4.53055 28.1814 6.08827 28.6217 6.13456 30.2143C6.15653 30.9666 6.07401 32.179 5.98661 33.4627C5.91347 34.5375 5.83788 35.6489 5.83788 36.3615C5.83788 37.0779 6.00331 37.5779 6.34345 37.8899C7.10536 38.5887 8.87479 38.5024 10.4782 38.3645C12.0619 38.1541 13.3141 37.9219 14.4181 37.634C14.6893 37.5634 14.9779 37.6434 15.1739 37.844C16.5298 39.2315 17.5309 40.6763 18.5216 42.6753H18.5217ZM22.6482 29.6305H19.6063C18.9645 29.6305 18.4085 29.1734 18.2845 28.5438L18.0417 27.3126L15.9599 26.4501L14.9177 27.1491C14.3846 27.5066 13.6682 27.4368 13.2144 26.9828L11.0636 24.8319C10.6097 24.3782 10.5397 23.6618 10.8974 23.1286L11.5962 22.0864L10.7338 20.0046L9.50272 19.7619C8.87294 19.6378 8.41591 19.0817 8.41591 18.4399V15.398C8.41591 14.7561 8.87303 14.2001 9.50282 14.076L10.7338 13.8333L11.5962 11.7515L10.8973 10.7091C10.5397 10.1761 10.6097 9.45968 11.0638 9.00577L13.2144 6.85499C13.6682 6.40128 14.3843 6.33106 14.9176 6.68858L15.9599 7.38761L18.0417 6.52511L18.2845 5.29405C18.4086 4.66436 18.9645 4.20733 19.6063 4.20733H22.6482C23.2901 4.20733 23.8462 4.66436 23.9702 5.29405L24.213 6.52511L26.2947 7.38761L27.3371 6.68858C27.8702 6.33116 28.5866 6.40118 29.0402 6.85499L31.1911 9.00587C31.6448 9.45958 31.7148 10.1757 31.3577 10.7088L30.6585 11.7515L31.5209 13.8332L32.752 14.076C33.3817 14.2001 33.8388 14.7561 33.8388 15.3979V18.4398C33.8388 19.0816 33.3817 19.6376 32.752 19.7617L31.5209 20.0044L30.6585 22.0862L31.3575 23.1285C31.7149 23.6616 31.6449 24.3779 31.1912 24.8317L29.0402 26.9827C28.5863 27.4366 27.8701 27.5065 27.3371 27.149L26.2947 26.45L24.213 27.3125L23.9702 28.5437C23.8461 29.1733 23.2901 29.6305 22.6482 29.6305ZM22.4714 28.068L22.7609 26.5998C22.8115 26.3434 22.9869 26.1292 23.2284 26.0292L26.0833 24.8465C26.325 24.7465 26.6005 24.7739 26.8175 24.9194L28.0605 25.753L29.9614 23.8522L29.1278 22.6092C28.9823 22.3921 28.9549 22.1165 29.055 21.875L30.2377 19.02C30.3377 18.7785 30.5519 18.6031 30.8084 18.5525L32.2765 18.2632V15.5749L30.8083 15.2855C30.5518 15.2349 30.3378 15.0595 30.2377 14.818L29.055 11.9631C28.955 11.7216 28.9823 11.4461 29.1278 11.2289L29.9614 9.98585L28.0604 8.08497L26.8174 8.91856C26.6005 9.06407 26.3248 9.09151 26.0833 8.99141L23.2284 7.8086C22.9869 7.7086 22.8114 7.49444 22.7609 7.238L22.4715 5.76993H19.7831L19.4936 7.238C19.4431 7.49444 19.2677 7.7086 19.0262 7.8086L16.1713 8.99141C15.9299 9.09161 15.6541 9.06407 15.4372 8.91856L14.1941 8.08497L12.2933 9.98585L13.1267 11.2289C13.2723 11.446 13.2997 11.7215 13.1996 11.9631L12.0169 14.818C11.9169 15.0595 11.7027 15.2349 11.4463 15.2855L9.97811 15.5749V18.2632L11.4462 18.5525C11.7026 18.6031 11.9168 18.7785 12.0169 19.02L13.1996 21.875C13.2996 22.1165 13.2723 22.392 13.1267 22.6092L12.2933 23.8523L14.194 25.7531L15.4371 24.9195C15.6543 24.774 15.9299 24.7466 16.1713 24.8466L19.0262 26.0293C19.2677 26.1293 19.4432 26.3435 19.4936 26.5999L19.7832 28.0681H22.4714V28.068ZM21.1272 23.9659C17.2415 23.9659 14.0802 20.8046 14.0802 16.9189C14.0802 13.0331 17.2415 9.87179 21.1272 9.87179C25.013 9.87179 28.1742 13.0331 28.1742 16.9189C28.1742 20.8046 25.013 23.9659 21.1272 23.9659ZM26.6117 16.9189C26.6117 13.8946 24.1515 11.4343 21.1272 11.4343C18.103 11.4343 15.6427 13.8946 15.6427 16.9189C15.6427 19.9431 18.103 22.4034 21.1272 22.4034C24.1515 22.4034 26.6117 19.9431 26.6117 16.9189ZM23.3884 14.317L20.0096 17.6958L18.9901 15.93C18.7745 15.5565 18.2969 15.4282 17.9229 15.644C17.5493 15.8598 17.4212 16.3376 17.637 16.7112L19.1655 19.3587C19.2869 19.569 19.4993 19.7109 19.7401 19.7427C19.7742 19.7472 19.8082 19.7493 19.8421 19.7493C20.0478 19.7493 20.247 19.668 20.3945 19.5205L24.4932 15.4218C24.7983 15.1167 24.7983 14.6221 24.4932 14.317C24.1881 14.0119 23.6935 14.0119 23.3884 14.317ZM48.2759 32.621C46.6927 34.2041 44.4979 34.8637 42.3286 34.4295L34.7006 42.0575C35.1345 44.2274 34.4751 46.4216 32.8919 48.0048C31.635 49.2617 29.9523 49.9385 28.2276 49.9386C27.5906 49.9386 26.9482 49.8464 26.3189 49.6569C26.0558 49.5777 25.8535 49.366 25.7865 49.0995C25.7193 48.833 25.7973 48.5508 25.9917 48.3565L29.4076 44.9405L28.8193 42.7451L26.6239 42.1568L23.208 45.5728C23.0136 45.7671 22.7315 45.8451 22.4649 45.7779C22.1984 45.7108 21.9867 45.5087 21.9075 45.2455C21.2053 42.9123 21.8383 40.3937 23.5598 38.6725C25.1177 37.1145 27.36 36.4424 29.5062 36.8645L37.1356 29.2351C36.7137 27.0889 37.3856 24.8466 38.9435 23.2886C40.6648 21.5673 43.1836 20.9341 45.5167 21.6363C45.7799 21.7156 45.9821 21.9273 46.0491 22.1938C46.1163 22.4603 46.0383 22.7425 45.8439 22.9368L42.428 26.3527L43.0164 28.5483L45.2118 29.1365L48.6277 25.7206C48.8222 25.5263 49.1043 25.4484 49.3708 25.5153C49.6373 25.5824 49.849 25.7847 49.9282 26.0479C50.6304 28.381 49.9974 30.8997 48.2761 32.621H48.2759ZM48.6402 27.9175L45.9974 30.5603C45.8001 30.7575 45.5129 30.8349 45.2428 30.7624L42.176 29.9406C41.9063 29.8684 41.6958 29.6578 41.6235 29.3883L40.8017 26.3214C40.7295 26.0518 40.8065 25.7641 41.0038 25.5667L43.6531 22.9175C42.3245 22.9034 41.0184 23.4229 40.0481 24.3932C38.7755 25.6658 38.2774 27.5369 38.7484 29.2764C38.8216 29.5465 38.7446 29.8352 38.5469 30.033L30.3042 38.2757C30.1063 38.4734 29.8175 38.5506 29.5475 38.4773C27.8081 38.0063 25.9368 38.5043 24.6643 39.777C23.6939 40.7473 23.1767 42.0496 23.1886 43.3819L25.8378 40.7327C26.0352 40.5354 26.3229 40.4583 26.5925 40.5306L29.6593 41.3524C29.9289 41.4246 30.1394 41.6352 30.2117 41.9048L31.0335 44.9716C31.1057 45.2412 31.0286 45.5288 30.8313 45.7263L28.1886 48.3691H28.1971C29.5229 48.3691 30.8371 47.8498 31.787 46.8998C33.079 45.6079 33.5648 43.7823 33.0868 42.0164C33.0137 41.7463 33.0905 41.4576 33.2884 41.2598L41.531 33.0171C41.7288 32.8193 42.0175 32.742 42.2877 32.8155C44.0535 33.2934 45.8791 32.8078 47.1711 31.5159C48.123 30.5639 48.6426 29.2462 48.6403 27.9174L48.6402 27.9175Z" fill="#007BC0"/>
</svg>
