<svg width="45" height="51" viewBox="0 0 45 51" fill="none" xmlns="http://www.w3.org/2000/svg">
<path d="M29.4328 45.7051L28.8063 47.0608C28.4527 47.8262 28.2695 48.6593 28.2695 49.5023" stroke="#007BC0" stroke-width="1.5" stroke-miterlimit="10" stroke-linecap="round" stroke-linejoin="round"/>
<path d="M9.81836 49.5024L10.3457 47.2563C10.7207 45.6597 10.9394 44.0317 10.999 42.395" stroke="#007BC0" stroke-width="1.5" stroke-miterlimit="10" stroke-linecap="round" stroke-linejoin="round"/>
<path d="M41.1601 17.3892C41.413 18.6352 41.539 19.9116 41.5322 21.1997C41.5322 21.2104 41.5322 21.2202 41.5312 21.229C41.5273 21.9643 41.3398 22.686 40.9823 23.3403L40.9628 23.3755C40.248 24.6801 40.248 26.2583 40.9609 27.5629L43.3144 31.8676C43.7489 32.6635 43.4931 33.6606 42.7284 34.1489L41.6122 34.8617C41.0478 35.2221 40.8193 35.9321 41.0663 36.5541L41.5585 37.7904C41.7948 38.3832 41.6396 39.06 41.1699 39.4906L40.6767 39.9428L41.1874 40.6918C41.6239 41.3305 41.5165 42.1938 40.9384 42.7074L40.1259 43.4271C40.1259 43.4271 40.1259 43.8295 40.1259 44.3148C40.1259 45.3412 39.5722 46.2875 38.6738 46.7933L38.6435 46.8099C38.0849 47.1244 37.4345 47.2318 36.8046 47.1146L31.291 46.0873C28.7207 45.6088 26.3555 44.3627 24.5068 42.5141L22.834 40.8422" stroke="#007BC0" stroke-width="1.5" stroke-miterlimit="10" stroke-linecap="round" stroke-linejoin="round"/>
<path d="M8.54503 5.19312C8.52257 5.21069 8.50108 5.22925 8.47862 5.24683C5.7882 7.44311 3.70813 10.3855 2.55872 13.8093L2.44251 14.1569C0.0655703 21.2409 2.14466 29.0592 7.7257 34.027L9.75792 35.8366C10.5577 36.5485 11.0157 37.569 11.0157 38.6412V38.9772" stroke="#007BC0" stroke-width="1.5" stroke-miterlimit="10" stroke-linecap="round" stroke-linejoin="round"/>
<path d="M11.3945 3.29067C13.4258 2.18716 15.6767 1.45181 18.0527 1.15884C24.1953 0.403961 30.5986 1.73892 36.0253 7.70764L37.162 9.06799C38.4374 10.5924 39.452 12.2975 40.1815 14.1139" stroke="#007BC0" stroke-width="1.5" stroke-miterlimit="10" stroke-linecap="round" stroke-linejoin="round"/>
<path d="M31.7782 30.5729C34.41 27.8629 36.0311 24.1657 36.0311 20.0905C36.0311 11.781 29.2948 5.04468 20.9853 5.04468C12.6758 5.04468 5.93945 11.781 5.93945 20.0905C5.93945 28.4001 12.6758 35.1364 20.9853 35.1364C23.9872 35.1364 26.7841 34.2565 29.1327 32.7409" stroke="#007BC0" stroke-width="1.5" stroke-miterlimit="10" stroke-linecap="round" stroke-linejoin="round"/>
<path d="M26.421 25.3463C25.1119 25.3463 24.0508 24.285 24.0508 22.9761V18.7739H28.7913V22.9761C28.7913 24.285 27.7301 25.3463 26.421 25.3463Z" stroke="#007BC0" stroke-width="1.5" stroke-miterlimit="10" stroke-linecap="round" stroke-linejoin="round"/>
<path d="M26.4219 29.091V25.812" stroke="#007BC0" stroke-width="1.5" stroke-miterlimit="10" stroke-linecap="round" stroke-linejoin="round"/>
<path d="M24.7246 29.0911H28.1179" stroke="#007BC0" stroke-width="1.5" stroke-miterlimit="10" stroke-linecap="round" stroke-linejoin="round"/>
<path d="M24.1504 21.4685H28.2921" stroke="#007BC0" stroke-width="1.5" stroke-miterlimit="10" stroke-linecap="round" stroke-linejoin="round"/>
<path d="M19.2079 11.8298V13.5302C19.2079 14.5399 19.6136 15.5072 20.3341 16.2147C21.0544 16.9222 21.4602 17.8895 21.4602 18.8991V27.9848C21.4602 28.5957 20.965 29.0909 20.3542 29.0909H14.9264C14.3155 29.0909 13.8203 28.5957 13.8203 27.9848V18.8991C13.8203 17.8895 14.2261 16.9222 14.9465 16.2147C15.6668 15.5072 16.0726 14.5399 16.0726 13.5302V11.717" stroke="#007BC0" stroke-width="1.5" stroke-miterlimit="10" stroke-linecap="round" stroke-linejoin="round"/>
<path d="M19.3933 11.5483H15.8867C15.5706 11.5483 15.3145 11.292 15.3145 10.976V9.53247C15.3145 9.21636 15.5707 8.96021 15.8867 8.96021H19.3933C19.7095 8.96021 19.9656 9.21645 19.9656 9.53247V10.976C19.9656 11.292 19.7094 11.5483 19.3933 11.5483Z" stroke="#007BC0" stroke-width="1.5" stroke-miterlimit="10" stroke-linecap="round" stroke-linejoin="round"/>
<path d="M13.9844 19.4624H21.1147" stroke="#007BC0" stroke-width="1.5" stroke-miterlimit="10" stroke-linecap="round" stroke-linejoin="round"/>
<path d="M13.9844 24.9094H21.1147" stroke="#007BC0" stroke-width="1.5" stroke-miterlimit="10" stroke-linecap="round" stroke-linejoin="round"/>
<path d="M15.9512 15.125L17.6393 16.347L19.3274 15.125" stroke="#007BC0" stroke-width="1.5" stroke-miterlimit="10" stroke-linecap="round" stroke-linejoin="round"/>
</svg>
