<svg width="47" height="51" viewBox="0 0 47 51" fill="none" xmlns="http://www.w3.org/2000/svg">
<path d="M39.9234 32.2151C39.9224 31.3535 39.5797 30.5275 38.9705 29.9183C38.3613 29.3091 37.5353 28.9664 36.6737 28.9655H26.8398C28.1979 25.674 28.2028 21.9796 26.8535 18.6845C26.8417 18.6556 26.8282 18.6274 26.813 18.6002C26.5357 18.1011 26.1245 17.6894 25.6259 17.4113C25.1273 17.1332 24.561 16.9997 23.9907 17.026C23.4204 17.0522 22.8687 17.237 22.3977 17.5597C21.9267 17.8823 21.5551 18.33 21.3247 18.8524C21.2884 18.9349 21.2666 19.023 21.2602 19.1129L21.028 22.4085C20.6806 24.3025 19.6586 26.0064 18.1514 27.2048C17.5477 27.4168 16.4424 28.1664 13.559 30.91V30.8281C13.5586 30.3961 13.3868 29.982 13.0813 29.6765C12.7758 29.3711 12.3617 29.1993 11.9297 29.1989H3.72804C3.29609 29.1993 2.88195 29.3711 2.57651 29.6765C2.27107 29.982 2.09928 30.3961 2.09884 30.8281V47.1953C2.09915 47.6273 2.27088 48.0416 2.57634 48.3471C2.88179 48.6527 3.296 48.8245 3.72804 48.825H11.9292C12.3612 48.8245 12.7753 48.6528 13.0808 48.3473C13.3863 48.0419 13.5581 47.6277 13.5585 47.1958V47.124C15.8138 47.6214 16.9908 48.2127 18.3638 49.488C18.9036 50.0016 19.6225 50.284 20.3675 50.2752H33.0799C33.6968 50.2754 34.301 50.0999 34.8218 49.7693C35.3426 49.4387 35.7585 48.9667 36.0208 48.4083C36.2832 47.85 36.3811 47.2285 36.3031 46.6166C36.2251 46.0047 35.9745 45.4276 35.5806 44.9529C36.5951 44.3426 37.3169 43.25 37.3169 42.0892C37.3177 41.367 37.0766 40.6653 36.6322 40.096C37.6656 39.484 38.407 38.3542 38.407 37.1524C38.4078 36.4748 38.1957 35.8142 37.8005 35.2638C38.4231 35.0328 38.9601 34.617 39.3396 34.072C39.719 33.5271 39.9227 32.8791 39.9234 32.2151ZM11.996 47.1956C11.9954 47.2131 11.9881 47.2297 11.9757 47.242C11.9633 47.2544 11.9467 47.2616 11.9292 47.2623H3.72804C3.71055 47.2616 3.69395 47.2544 3.68158 47.242C3.6692 47.2296 3.66197 47.213 3.66134 47.1956V30.8284C3.662 30.8109 3.66923 30.7943 3.6816 30.7819C3.69397 30.7696 3.71056 30.7623 3.72804 30.7617H11.9292C11.9467 30.7623 11.9633 30.7696 11.9757 30.7819C11.9881 30.7943 11.9953 30.8109 11.996 30.8284V47.1956ZM36.6737 33.9021H33.9584C33.7512 33.9021 33.5525 33.9844 33.406 34.1309C33.2595 34.2774 33.1772 34.4762 33.1772 34.6834C33.1772 34.8906 33.2595 35.0893 33.406 35.2358C33.5525 35.3823 33.7512 35.4646 33.9584 35.4646H35.1574C35.6047 35.4652 36.0335 35.6432 36.3497 35.9594C36.666 36.2757 36.8439 36.7045 36.8445 37.1517C36.8445 38.0306 35.976 38.9248 35.0846 39.0019C34.7564 38.8936 34.4129 38.8386 34.0673 38.8389C33.8601 38.8389 33.6614 38.9212 33.5149 39.0677C33.3684 39.2143 33.2861 39.413 33.2861 39.6202C33.2861 39.8274 33.3684 40.0261 33.5149 40.1726C33.6614 40.3191 33.8601 40.4014 34.0673 40.4014C34.2649 40.4012 34.4609 40.4359 34.6464 40.5038C34.667 40.5128 34.6879 40.521 34.7094 40.5283C35.0183 40.6559 35.2825 40.8722 35.4685 41.1499C35.6545 41.4276 35.7539 41.7543 35.7543 42.0885C35.7543 42.9499 34.8512 43.8268 33.9317 43.8889C33.654 43.8135 33.3675 43.7754 33.0798 43.7756C32.8726 43.7756 32.6739 43.8579 32.5274 44.0045C32.3809 44.151 32.2986 44.3497 32.2986 44.5569C32.2986 44.7641 32.3809 44.9628 32.5274 45.1093C32.6739 45.2558 32.8726 45.3381 33.0798 45.3381C33.2434 45.338 33.4062 45.3618 33.5629 45.4086C33.5814 45.4153 33.6002 45.4213 33.6194 45.4266C33.9986 45.5544 34.32 45.8129 34.5263 46.1558C34.7325 46.4988 34.8102 46.9039 34.7454 47.2988C34.6805 47.6937 34.4775 48.0527 34.1724 48.3117C33.8673 48.5707 33.4801 48.7128 33.0799 48.7127H20.3675C20.1941 48.7165 20.0217 48.6859 19.8602 48.6225C19.6988 48.5591 19.5516 48.4642 19.4272 48.3433C17.768 46.8018 16.3177 46.1001 13.5585 45.5259V33.0793L13.6971 32.9445C17.5317 29.2206 18.471 28.7371 18.6704 28.6784C18.7862 28.6545 18.8951 28.6048 18.989 28.5329C20.8773 27.0865 22.156 24.9858 22.5736 22.6442C22.5784 22.6168 22.5819 22.5891 22.5839 22.5614L22.8085 19.3734C22.9354 19.1396 23.122 18.9436 23.3493 18.8054C23.5765 18.6672 23.8364 18.5916 24.1023 18.5865C24.3683 18.5813 24.6309 18.6467 24.8633 18.776C25.0958 18.9053 25.2898 19.0939 25.4257 19.3226C26.0781 20.9355 26.3709 22.6713 26.2837 24.4089C26.1966 26.1466 25.7315 27.8443 24.9209 29.3838C24.8584 29.5029 24.8276 29.6361 24.8317 29.7705C24.8357 29.905 24.8744 30.0361 24.9439 30.1512C25.0135 30.2663 25.1116 30.3615 25.2287 30.4276C25.3459 30.4937 25.4781 30.5284 25.6126 30.5284H36.6737C37.119 30.5318 37.5448 30.711 37.8585 31.027C38.1721 31.3431 38.3481 31.7703 38.3481 32.2155C38.3481 32.6608 38.1721 33.088 37.8585 33.404C37.5448 33.7201 37.119 33.8993 36.6737 33.9027V33.9021ZM9.34767 33.3279V33.4221C9.34767 33.6293 9.26536 33.828 9.11885 33.9745C8.97233 34.1211 8.77362 34.2034 8.56642 34.2034C8.35922 34.2034 8.16051 34.1211 8.01399 33.9745C7.86748 33.828 7.78517 33.6293 7.78517 33.4221V33.3279C7.78517 33.1207 7.86748 32.922 8.01399 32.7755C8.16051 32.6289 8.35922 32.5466 8.56642 32.5466C8.77362 32.5466 8.97233 32.6289 9.11885 32.7755C9.26536 32.922 9.34767 33.1207 9.34767 33.3279ZM32.7901 6.97261C32.7429 6.8276 32.6544 6.69954 32.5354 6.60422C32.4164 6.5089 32.2721 6.45049 32.1203 6.43619L26.5208 5.90884L24.2884 0.746342C24.2279 0.606396 24.1277 0.487214 24.0003 0.403487C23.8729 0.31976 23.7238 0.275146 23.5713 0.275146C23.4188 0.275146 23.2697 0.31976 23.1423 0.403487C23.0149 0.487214 22.9147 0.606396 22.8542 0.746342L20.6221 5.90874L15.0227 6.43609C14.8709 6.4504 14.7266 6.50881 14.6076 6.60412C14.4886 6.69943 14.4001 6.82748 14.353 6.97248C14.3059 7.11748 14.3022 7.27309 14.3425 7.42015C14.3827 7.5672 14.4651 7.69926 14.5795 7.80005L18.7995 11.518L17.5708 17.0063C17.5375 17.1551 17.5485 17.3104 17.6024 17.453C17.6562 17.5956 17.7507 17.7194 17.874 17.809C17.9973 17.8986 18.1442 17.9501 18.2965 17.9573C18.4488 17.9645 18.5999 17.9269 18.7311 17.8493L23.5713 14.9849L28.4113 17.8495C28.5426 17.9271 28.6936 17.9647 28.8459 17.9575C28.9982 17.9503 29.1451 17.8988 29.2684 17.8092C29.3918 17.7195 29.4862 17.5958 29.5401 17.4532C29.5939 17.3106 29.6049 17.1553 29.5716 17.0065L28.343 11.5182L32.563 7.80025C32.6775 7.69951 32.76 7.56747 32.8004 7.4204C32.8407 7.27333 32.8371 7.11767 32.7901 6.97261ZM26.9636 10.6514C26.8586 10.744 26.7803 10.863 26.7371 10.9962C26.6938 11.1293 26.6871 11.2716 26.7177 11.4083L27.6527 15.5845L23.9697 13.4047C23.8493 13.3334 23.7118 13.2958 23.5718 13.2958C23.4318 13.2958 23.2943 13.3334 23.1738 13.4047L19.4909 15.5845L20.4254 11.408C20.456 11.2714 20.4493 11.129 20.406 10.9959C20.3628 10.8627 20.2845 10.7437 20.1795 10.6511L16.9685 7.82203L21.2292 7.42066C21.3686 7.40752 21.5019 7.35717 21.6151 7.27488C21.7284 7.19259 21.8174 7.08138 21.873 6.95289L23.5713 3.02505L25.2696 6.95318C25.3252 7.08167 25.4143 7.19288 25.5275 7.27517C25.6407 7.35746 25.774 7.40781 25.9134 7.42095L30.1742 7.82232L26.9636 10.6514ZM46.5443 11.5505C46.4971 11.4055 46.4086 11.2775 46.2896 11.1822C46.1706 11.0868 46.0263 11.0284 45.8745 11.0141L41.9285 10.6424L40.3552 7.00445C40.2947 6.8645 40.1945 6.74532 40.0671 6.66159C39.9397 6.57787 39.7906 6.53325 39.6381 6.53325C39.4856 6.53325 39.3365 6.57787 39.2091 6.66159C39.0817 6.74532 38.9815 6.8645 38.921 7.00445L37.3482 10.6424L33.4021 11.0141C33.2503 11.0284 33.1059 11.0868 32.9869 11.1821C32.8679 11.2774 32.7794 11.4055 32.7323 11.5505C32.6852 11.6955 32.6815 11.8512 32.7218 11.9983C32.7621 12.1453 32.8445 12.2774 32.9589 12.3782L35.9328 14.9982L35.067 18.866C35.0337 19.0148 35.0447 19.1701 35.0986 19.3127C35.1525 19.4554 35.247 19.5791 35.3703 19.6687C35.4937 19.7583 35.6406 19.8098 35.793 19.817C35.9453 19.8241 36.0964 19.7865 36.2276 19.7087L39.6384 17.6901L43.0489 19.7087C43.1802 19.7864 43.3312 19.824 43.4835 19.8169C43.6358 19.8097 43.7827 19.7581 43.9061 19.6685C44.0295 19.5789 44.1239 19.4551 44.1778 19.3125C44.2316 19.1699 44.2426 19.0146 44.2093 18.8658L43.3434 14.998L46.3172 12.378C46.4316 12.2772 46.514 12.1452 46.5542 11.9981C46.5945 11.8511 46.5908 11.6955 46.5438 11.5505H46.5443ZM41.9642 14.1315C41.8591 14.224 41.7809 14.3431 41.7376 14.4763C41.6944 14.6094 41.6877 14.7517 41.7183 14.8883L42.2904 17.444L40.0361 16.1101C39.9157 16.0388 39.7782 16.0012 39.6382 16.0012C39.4982 16.0012 39.3607 16.0388 39.2402 16.1101L36.9866 17.444L37.5587 14.8883C37.5893 14.7517 37.5826 14.6094 37.5393 14.4763C37.4961 14.3431 37.4178 14.224 37.3128 14.1315L35.3477 12.4003L37.9551 12.1546C38.0945 12.1415 38.2278 12.0912 38.341 12.0089C38.4543 11.9266 38.5434 11.8154 38.5989 11.6869L39.6382 9.28306L40.6775 11.6869C40.733 11.8154 40.8221 11.9266 40.9354 12.0089C41.0486 12.0912 41.1819 12.1415 41.3213 12.1546L43.9287 12.4003L41.9642 14.1315ZM13.7415 11.0141L9.79552 10.6424L8.2216 7.00445C8.16109 6.8645 8.06095 6.74532 7.93353 6.66159C7.80611 6.57787 7.65697 6.53325 7.50451 6.53325C7.35204 6.53325 7.2029 6.57787 7.07548 6.66159C6.94806 6.74532 6.84793 6.8645 6.78742 7.00445L5.21457 10.6424L1.26857 11.0141C1.11676 11.0284 0.97245 11.0868 0.853432 11.1821C0.734414 11.2774 0.645891 11.4055 0.598776 11.5505C0.551662 11.6955 0.548015 11.8512 0.588285 11.9983C0.628556 12.1453 0.710983 12.2774 0.825405 12.3782L3.79923 14.9982L2.93332 18.866C2.90005 19.0148 2.91105 19.17 2.96494 19.3126C3.01884 19.4552 3.11328 19.579 3.23663 19.6685C3.35998 19.7581 3.50685 19.8097 3.65914 19.8168C3.81142 19.824 3.96247 19.7864 4.09367 19.7087L7.50451 17.6901L10.9151 19.7087C11.0463 19.7864 11.1973 19.8239 11.3496 19.8168C11.5019 19.8096 11.6488 19.7581 11.7721 19.6684C11.8955 19.5788 11.9899 19.4551 12.0438 19.3125C12.0976 19.1698 12.1086 19.0146 12.0753 18.8658L11.2094 14.998L14.1833 12.378C14.2977 12.2772 14.3802 12.1451 14.4204 11.9981C14.4607 11.851 14.4571 11.6954 14.4099 11.5503C14.3628 11.4053 14.2743 11.2773 14.1553 11.1819C14.0363 11.0866 13.892 11.0282 13.7402 11.0139L13.7415 11.0141ZM9.83097 14.1315C9.72593 14.224 9.6477 14.3431 9.60444 14.4763C9.56118 14.6094 9.55449 14.7517 9.58507 14.8883L10.1571 17.4439L7.90246 16.1101C7.78197 16.0388 7.64452 16.0012 7.50451 16.0012C7.36449 16.0012 7.22705 16.0388 7.10656 16.1101L4.85285 17.444L5.42501 14.8883C5.4556 14.7517 5.44891 14.6094 5.40565 14.4763C5.36239 14.3431 5.28415 14.224 5.17912 14.1315L3.21408 12.4003L5.8215 12.1546C5.96089 12.1415 6.09418 12.0912 6.20745 12.0089C6.32072 11.9266 6.40979 11.8154 6.46535 11.6869L7.50451 9.28316L8.54376 11.6869C8.59932 11.8154 8.68837 11.9266 8.80162 12.0089C8.91487 12.0912 9.04815 12.1415 9.18751 12.1546L11.7949 12.4003L9.83097 14.1315Z" fill="#0091E3"/>
</svg>
