<svg width="177" height="125" viewBox="0 0 177 125" fill="none" xmlns="http://www.w3.org/2000/svg">
<path fill-rule="evenodd" clip-rule="evenodd" d="M75.6468 38.696C79.9452 40.0011 83.1239 43.8815 83.3884 48.5418H83.4064V49.1549L83.4071 49.1729L83.4064 49.1902V70.8289H61.5222V49.1902L61.5215 49.1729L61.5222 49.1549V48.5418H61.5402C61.8144 43.7173 65.2119 39.7288 69.7415 38.5679C66.6541 37.328 64.4738 34.3065 64.4738 30.7745C64.4738 26.1384 68.2307 22.3799 72.8648 22.3799C77.499 22.3799 81.2559 26.1384 81.2559 30.7745C81.2559 34.4353 78.9135 37.5476 75.6468 38.696Z" fill="#5DA2DA"/>
<path fill-rule="evenodd" clip-rule="evenodd" d="M106.825 38.6649C111.382 39.8078 114.806 43.8087 115.08 48.6534H115.098V49.2664L115.099 49.2844L115.098 49.3017L114.945 70.9654L104.514 75.5801L93.0605 70.9654L93.2143 49.3017V49.2844V49.2664V48.6534H93.233C93.503 43.8912 96.8154 39.9436 101.256 38.7258C97.946 37.6016 95.5642 34.4665 95.5642 30.7745C95.5642 26.1384 99.3211 22.3799 103.955 22.3799C108.589 22.3799 112.346 26.1384 112.346 30.7745C112.346 34.4021 110.046 37.4922 106.825 38.6649Z" fill="#80B959"/>
<path fill-rule="evenodd" clip-rule="evenodd" d="M93.7041 46.5573C96.8621 48.3375 99.0472 51.6402 99.2647 55.47H99.2833V56.083V56.1011V56.1184V77.7571H77.3984V56.1184V56.1011V56.083V55.47H77.4171C77.6345 51.6402 79.8204 48.3375 82.9777 46.5573C81.1276 45.0174 79.9499 42.6976 79.9499 40.1022C79.9499 35.466 83.7068 31.7075 88.3409 31.7075C92.975 31.7075 96.7319 35.466 96.7319 40.1022C96.7319 42.6976 95.5542 45.0174 93.7041 46.5573Z" fill="#CD3539"/>
<path fill-rule="evenodd" clip-rule="evenodd" d="M104.803 74.1365C100.672 64.1424 94.3697 61.0607 84.1535 59.2029C79.2216 58.3475 76.0651 57.3604 71.3963 55.4527C68.5028 54.2689 64.7543 51.5716 65.2147 55.7159C65.6751 59.5977 75.8961 64.556 75.7459 65.0201C69.3655 67.8455 56.0544 54.4698 51.1018 47.8491L46.2129 40.0592C45.9415 39.7323 45.9297 39.5328 45.8881 40.1853C45.8293 41.0989 45.7988 42.0209 45.7988 42.9491C45.7988 66.4283 64.8242 85.4619 88.2933 85.4619C111.762 85.4619 130.787 66.4283 130.787 42.9491C130.787 19.4699 111.762 0.43634 88.2933 0.43634C67.4753 0.43634 50.156 15.4135 46.5085 35.1848C48.2208 38.6018 50.0383 41.5533 52.4118 44.5637C52.3883 44.0283 52.3744 43.4901 52.3744 42.9491C52.3744 23.103 68.4558 7.01475 88.2933 7.01475C108.131 7.01475 124.212 23.103 124.212 42.9491C124.212 56.7882 116.391 68.798 104.931 74.8015C104.891 74.5937 104.848 74.3727 104.803 74.1365Z" fill="#353767"/>
<path d="M0.478516 105.855V91.7992H4.48743C6.05222 91.7992 7.14619 91.8712 7.76241 92.0153C8.37794 92.1594 8.91177 92.4018 9.36044 92.7392C9.86449 93.1229 10.2543 93.614 10.5264 94.2077C10.7978 94.8034 10.9322 95.4586 10.9322 96.1763C10.9322 97.2645 10.6635 98.149 10.1297 98.8306C9.59308 99.5122 8.81345 99.9639 7.78803 100.187L11.6204 105.855H7.29713L4.07476 100.35V105.855H0.478516ZM4.07476 98.4441H4.78169C5.60701 98.4441 6.21008 98.3028 6.58951 98.0209C6.96963 97.7397 7.15934 97.297 7.15934 96.6972C7.15934 95.9927 6.98278 95.4919 6.62897 95.1933C6.2717 94.8955 5.67902 94.748 4.84054 94.748H4.07476V98.4441ZM13.0779 105.855V91.7992H21.6842V94.8858H16.8112V97.3233H21.4059V100.331H16.8112V102.71H21.6842V105.855H13.0779ZM24.2156 105.855V91.7992H27.9101L33.2221 99.0267C33.3239 99.1742 33.4908 99.4727 33.7234 99.9181C33.9595 100.361 34.2143 100.891 34.4961 101.507C34.4206 100.924 34.3652 100.406 34.3292 99.9507C34.2932 99.4956 34.2766 99.0925 34.2766 98.742V91.7992H37.9511V105.855H34.2766L28.9681 98.5979C28.8566 98.4503 28.6863 98.1525 28.4537 97.7099C28.2182 97.2645 27.9655 96.7401 27.6906 96.1375C27.7661 96.7269 27.8215 97.2478 27.8575 97.7029C27.8935 98.1587 27.9101 98.5619 27.9101 98.9124V105.855H24.2156ZM40.9581 105.855V91.7992H49.5645V94.8858H44.6915V97.3233H49.2862V100.331H44.6915V102.71H49.5645V105.855H40.9581ZM61.666 91.7992L63.4309 98.4829C63.5133 98.7814 63.5915 99.0959 63.6601 99.4236C63.7328 99.7477 63.8048 100.125 63.883 100.547C63.9779 100.046 64.0603 99.6362 64.1254 99.312C64.1939 98.9879 64.2597 98.7122 64.322 98.4829L65.9726 91.7992H69.8403L65.8681 105.855H62.3175L60.5817 99.8523C60.5166 99.6431 60.4114 99.2303 60.2639 98.6138C60.2023 98.3388 60.1497 98.1262 60.1102 97.9717C60.0811 98.1061 60.0347 98.2966 59.9759 98.539C59.8284 99.161 59.7169 99.5967 59.6422 99.8523L57.9327 105.855H54.3724L50.4064 91.7992H54.2776L55.8887 98.5189C55.9677 98.8666 56.0424 99.2102 56.1145 99.5579C56.1899 99.9015 56.2585 100.259 56.3208 100.623C56.3803 100.354 56.442 100.072 56.5077 99.7775C56.5763 99.4824 56.6781 99.0634 56.8124 98.5189L58.5773 91.7992H61.666ZM74.5333 100.606H78.3421L76.9109 95.9671C76.8687 95.8258 76.8064 95.5999 76.7309 95.2855C76.6527 94.971 76.5544 94.5679 76.4332 94.076C76.3515 94.4203 76.2691 94.7514 76.1874 95.0659C76.1085 95.3769 76.0268 95.6782 75.9451 95.9671L74.5333 100.606ZM69.1659 105.855L74.0161 91.7992H78.8143L83.6679 105.855H79.8584L79.148 103.339H73.708L72.9782 105.855H69.1659ZM85.007 105.855V91.7992H88.8387V102.572H93.594V105.855H85.007ZM111.399 105.855V91.7992H115.408C116.974 91.7992 118.068 91.8712 118.683 92.0153C119.299 92.1594 119.833 92.4018 120.281 92.7392C120.785 93.1229 121.175 93.614 121.447 94.2077C121.719 94.8034 121.853 95.4586 121.853 96.1763C121.853 97.2645 121.585 98.149 121.051 98.8306C120.514 99.5122 119.734 99.9639 118.709 100.187L122.541 105.855H118.218L114.996 100.35V105.855H111.399ZM114.996 98.4441H115.703C116.528 98.4441 117.131 98.3028 117.51 98.0209C117.89 97.7397 118.08 97.297 118.08 96.6972C118.08 95.9927 117.904 95.4919 117.55 95.1933C117.193 94.8955 116.6 94.748 115.761 94.748H114.996V98.4441ZM123.999 105.855V91.7992H132.605V94.8858H127.732V97.3233H132.327V100.331H127.732V102.71H132.605V105.855H123.999ZM135.136 105.855V91.7992H138.969V97.2645H144.078V91.7992H147.91V105.855H144.078V100.134H138.969V105.855H135.136ZM154.61 100.606H158.419L156.988 95.9671C156.945 95.8258 156.883 95.5999 156.807 95.2855C156.729 94.971 156.631 94.5679 156.51 94.076C156.428 94.4203 156.346 94.7514 156.264 95.0659C156.186 95.3769 156.103 95.6782 156.022 95.9671L154.61 100.606ZM149.242 105.855L154.093 91.7992H158.891L163.744 105.855H159.936L159.224 103.339H153.785L153.055 105.855H149.242ZM168.64 97.4217H169.407C170.353 97.4217 171.001 97.3164 171.355 97.11C171.705 96.9008 171.883 96.5399 171.883 96.0294C171.883 95.4981 171.719 95.1282 171.388 94.9121C171.061 94.6988 170.418 94.5907 169.466 94.5907H168.64V97.4217ZM165.083 105.855V91.7992H168.939C170.524 91.7992 171.631 91.8518 172.263 91.953C172.891 92.0548 173.432 92.2314 173.887 92.4808C174.404 92.7689 174.8 93.1555 175.072 93.6376C175.345 94.1218 175.479 94.6794 175.479 95.3146C175.479 96.1139 175.275 96.7498 174.87 97.2215C174.463 97.6905 173.815 98.0472 172.924 98.2931C173.92 98.3686 174.703 98.7191 175.262 99.3418C175.826 99.9673 176.108 100.799 176.108 101.844C176.108 102.592 175.95 103.251 175.633 103.821C175.318 104.391 174.863 104.833 174.277 105.144C173.799 105.4 173.206 105.583 172.505 105.691C171.801 105.8 170.651 105.855 169.053 105.855H165.083ZM168.64 102.985H169.983C170.89 102.985 171.532 102.87 171.909 102.644C172.286 102.415 172.472 102.035 172.472 101.504C172.472 100.914 172.299 100.505 171.955 100.269C171.611 100.036 170.972 99.9181 170.042 99.9181H168.64V102.985ZM94.9337 105.855V91.7992H98.7654V102.572H103.521V105.855H94.9337Z" fill="#353767"/>
<path d="M18.4219 115.121V109.246H19.6848V114.115H21.8748V109.246H23.1287V114.115H24.4553V115.997H23.2921V115.121H18.4219ZM31.4013 109.246H34.963V110.342H32.6372V111.398H34.963V112.478H32.6372V114.025H34.963V115.121H31.4013V109.246ZM42.2552 109.246H43.5181V111.463H45.6984V109.246H46.9523V115.121H45.6984V112.544H43.5181V115.121H42.2552V109.246ZM53.9551 109.246H57.5624V110.351H56.3722V115.121H55.1086V110.351H53.9551V109.246ZM64.5451 109.246H65.8641C66.5773 109.246 67.0903 109.305 67.4054 109.423C67.7204 109.542 67.9704 109.734 68.1518 109.999C68.3339 110.263 68.4246 110.581 68.4246 110.952C68.4246 111.363 68.3048 111.703 68.0659 111.975C67.8277 112.246 67.5037 112.436 67.0938 112.542C66.8528 112.603 66.4153 112.634 65.7803 112.634V115.121H64.5451V109.246ZM65.7803 111.545H66.1792C66.4921 111.545 66.7088 111.525 66.8314 111.485C66.9539 111.444 67.0495 111.379 67.1208 111.286C67.1907 111.194 67.2253 111.081 67.2253 110.949C67.2253 110.721 67.127 110.555 66.9297 110.451C66.7878 110.374 66.5212 110.334 66.1335 110.334H65.7803V111.545ZM87.6431 115.121L85.8339 110.814L83.997 115.121H82.6794L85.199 109.246H86.4591L88.9718 115.121H87.6431ZM95.8769 109.246H99.4386V110.342H97.1129V111.398H99.4386V112.478H97.1129V114.025H99.4386V115.121H95.8769V109.246ZM109.583 112.544H109.169C108.57 112.544 108.128 112.516 107.845 112.461C107.56 112.404 107.288 112.285 107.029 112.103C106.77 111.92 106.587 111.701 106.481 111.442C106.375 111.183 106.322 110.839 106.322 110.41V109.246H107.584V110.393C107.584 110.793 107.663 111.07 107.823 111.228C107.981 111.384 108.319 111.463 108.836 111.463H109.583V109.246H110.837V115.121H109.583V112.544ZM118.494 109.246H122.056V110.342H119.73V111.398H122.056V112.478H119.73V114.025H122.056V115.121H118.494V109.246ZM129.348 109.246H130.61V111.463H132.791V109.246H134.045V115.121H132.791V112.544H130.61V115.121H129.348V109.246ZM146.436 109.246V115.121H145.2V111.443L142.742 115.121H141.675V109.246H142.91V113.044L145.406 109.246H146.436ZM157.916 109.246V115.121H156.68V112.748H156.37L155.052 115.121H153.695L155.175 112.564C154.319 112.344 153.891 111.832 153.891 111.027C153.891 110.739 153.936 110.49 154.026 110.278C154.116 110.065 154.244 109.885 154.412 109.738C154.579 109.591 154.771 109.482 154.991 109.411C155.212 109.341 155.385 109.301 155.516 109.289C155.646 109.278 156.008 109.265 156.602 109.246H157.916ZM156.68 111.668V110.342H156.339C156.029 110.342 155.805 110.359 155.669 110.393C155.534 110.425 155.422 110.498 155.337 110.608C155.251 110.718 155.208 110.855 155.208 111.017C155.208 111.259 155.295 111.428 155.466 111.525C155.637 111.62 155.912 111.668 156.29 111.668H156.68Z" fill="#5DA2DA"/>
<path d="M29.3483 122.308C29.6952 122.743 30.1023 122.961 30.569 122.961C30.8791 122.961 31.1298 122.882 31.3223 122.723C31.512 122.565 31.6082 122.355 31.6082 122.093C31.6082 121.835 31.5154 121.622 31.3285 121.454C31.1416 121.284 30.7545 121.199 30.1681 121.199H29.8849V120.145H30.166C30.5129 120.145 30.7753 120.073 30.956 119.931C31.1346 119.787 31.2246 119.595 31.2246 119.353C31.2246 119.132 31.1492 118.957 30.9989 118.828C30.8508 118.699 30.652 118.634 30.4042 118.634C30.112 118.634 29.8101 118.765 29.5013 119.025L28.7293 118.249C29.1433 117.913 29.4902 117.711 29.7686 117.645C30.0462 117.579 30.3038 117.546 30.5371 117.546C31.1 117.546 31.5715 117.692 31.9551 117.987C32.3366 118.283 32.5284 118.68 32.5284 119.181C32.5284 119.403 32.4855 119.619 32.3989 119.829C32.3131 120.041 32.0735 120.264 31.6782 120.499C32.4889 120.823 32.8933 121.376 32.8933 122.157C32.8933 122.735 32.6787 123.199 32.2487 123.55C31.8187 123.9 31.2662 124.075 30.5918 124.075C30.166 124.075 29.7845 124.006 29.4473 123.866C29.1101 123.727 28.7424 123.427 28.3457 122.965L29.3483 122.308ZM40.9132 117.718H42.2336L44.884 123.92H43.5207L42.9834 122.642H40.1606L39.6108 123.92H38.2475L40.9132 117.718ZM41.5751 119.367L40.6418 121.501H42.5036L41.5751 119.367ZM50.5595 123.92V117.718H51.6465C52.278 117.718 52.7377 117.754 53.0306 117.827C53.4447 117.927 53.7736 118.11 54.0187 118.376C54.2631 118.644 54.3856 118.959 54.3856 119.322C54.3856 119.558 54.3302 119.773 54.2195 119.965C54.1094 120.158 53.9286 120.34 53.6794 120.508C54.0969 120.685 54.4022 120.905 54.5954 121.172C54.7886 121.436 54.8848 121.75 54.8848 122.113C54.8848 122.462 54.7837 122.778 54.5843 123.065C54.3829 123.351 54.1239 123.566 53.8075 123.706C53.4911 123.849 53.0542 123.92 52.4968 123.92H50.5595ZM51.864 118.841V120.154H52.1561C52.4823 120.154 52.7253 120.093 52.8838 119.971C53.0417 119.85 53.1199 119.685 53.1199 119.476C53.1199 119.281 53.0452 119.128 52.8949 119.013C52.7447 118.899 52.5162 118.841 52.2088 118.841H51.864ZM51.864 121.208V122.797H52.1963C52.7474 122.797 53.1199 122.735 53.3117 122.611C53.5035 122.487 53.5998 122.308 53.5998 122.072C53.5998 121.805 53.4876 121.594 53.2626 121.439C53.0369 121.285 52.663 121.208 52.1402 121.208H51.864ZM65.8141 117.718V123.92H64.5097V120.037L61.916 123.92H60.7888V117.718H62.0933V121.727L64.7271 117.718H65.8141ZM78.3837 118.807L77.4642 119.592C76.8397 118.999 76.1376 118.703 75.3559 118.703C74.6974 118.703 74.1415 118.906 73.6907 119.31C73.2386 119.715 73.0129 120.213 73.0129 120.806C73.0129 121.219 73.114 121.586 73.3134 121.906C73.5135 122.227 73.796 122.479 74.1608 122.662C74.5264 122.845 74.9329 122.935 75.3801 122.935C75.7603 122.935 76.1092 122.872 76.4236 122.743C76.74 122.615 77.0869 122.383 77.4642 122.045L78.3546 122.883C77.8464 123.331 77.3652 123.642 76.9131 123.814C76.4603 123.989 75.943 124.075 75.3628 124.075C74.2917 124.075 73.4138 123.77 72.7318 123.158C72.0491 122.548 71.7084 121.763 71.7084 120.809C71.7084 120.19 71.8635 119.642 72.1751 119.161C72.4853 118.68 72.9298 118.294 73.51 118.002C74.0888 117.71 74.712 117.563 75.3815 117.563C75.9493 117.563 76.4956 117.671 77.0232 117.887C77.5494 118.102 78.0029 118.409 78.3837 118.807ZM89.2154 117.718V123.92H87.9109V120.037L85.3172 123.92H84.19V117.718H85.4945V121.727L88.1283 117.718H89.2154ZM96.115 117.718H97.3862L98.9891 122.044L100.6 117.718H101.868L103.022 123.92H101.757L101.023 120.002L99.5645 123.92H98.4075L96.9562 120.002L96.2064 123.92H94.9276L96.115 117.718ZM111.998 117.563C112.971 117.563 113.809 117.881 114.509 118.516C115.211 119.15 115.561 119.925 115.561 120.838C115.561 121.743 115.216 122.509 114.523 123.135C113.833 123.761 112.994 124.075 112.007 124.075C110.974 124.075 110.115 123.753 109.432 123.109C108.749 122.466 108.406 121.702 108.406 120.816C108.406 120.225 108.566 119.679 108.885 119.181C109.202 118.684 109.641 118.289 110.197 117.999C110.755 117.708 111.356 117.563 111.998 117.563ZM111.979 118.72C111.344 118.72 110.811 118.92 110.379 119.319C109.945 119.718 109.73 120.225 109.73 120.841C109.73 121.526 110.001 122.069 110.547 122.467C110.97 122.779 111.455 122.935 112.003 122.935C112.621 122.935 113.149 122.732 113.584 122.328C114.02 121.923 114.237 121.425 114.237 120.832C114.237 120.241 114.019 119.742 113.579 119.333C113.141 118.925 112.607 118.72 111.979 118.72ZM127.803 118.807L126.883 119.592C126.259 118.999 125.557 118.703 124.775 118.703C124.116 118.703 123.56 118.906 123.11 119.31C122.658 119.715 122.432 120.213 122.432 120.806C122.432 121.219 122.533 121.586 122.732 121.906C122.932 122.227 123.215 122.479 123.58 122.662C123.945 122.845 124.352 122.935 124.799 122.935C125.179 122.935 125.528 122.872 125.843 122.743C126.159 122.615 126.507 122.383 126.883 122.045L127.774 122.883C127.265 123.331 126.784 123.642 126.332 123.814C125.88 123.989 125.362 124.075 124.782 124.075C123.711 124.075 122.833 123.77 122.151 123.158C121.468 122.548 121.127 121.763 121.127 120.809C121.127 120.19 121.283 119.642 121.594 119.161C121.904 118.68 122.349 118.294 122.929 118.002C123.508 117.71 124.131 117.563 124.801 117.563C125.368 117.563 125.915 117.671 126.442 117.887C126.968 118.102 127.422 118.409 127.803 118.807ZM132.947 117.718H136.755V118.884H135.499V123.92H134.166V118.884H132.947V117.718ZM147.329 117.718V123.92H146.025V120.037L143.431 123.92H142.304V117.718H143.608V121.727L146.242 117.718H147.329Z" fill="#5DA2DA"/>
</svg>
