<svg width="276" height="86" viewBox="0 0 276 86" fill="none" xmlns="http://www.w3.org/2000/svg">
<path fill-rule="evenodd" clip-rule="evenodd" d="M30.3949 38.696C34.6932 40.0011 37.872 43.8815 38.1364 48.5418H38.1545V49.1549L38.1551 49.1729L38.1545 49.1902V70.8289H16.2702V49.1902L16.2695 49.1729L16.2702 49.1549V48.5418H16.2882C16.5624 43.7173 19.9599 39.7288 24.4895 38.5679C21.4022 37.328 19.2219 34.3065 19.2219 30.7745C19.2219 26.1384 22.9788 22.3799 27.6129 22.3799C32.247 22.3799 36.0039 26.1384 36.0039 30.7745C36.0039 34.4353 33.6616 37.5476 30.3949 38.696Z" fill="#5DA2DA"/>
<path fill-rule="evenodd" clip-rule="evenodd" d="M61.5732 38.6649C66.1305 39.8078 69.5537 43.8087 69.8285 48.6534H69.8465V49.2664L69.8472 49.2844L69.8465 49.3017L69.6935 70.9654L59.262 75.5801L47.8086 70.9654L47.9623 49.3017V49.2844V49.2664V48.6534H47.981C48.251 43.8912 51.5634 39.9436 56.0044 38.7258C52.6941 37.6016 50.3123 34.4665 50.3123 30.7745C50.3123 26.1384 54.0691 22.3799 58.7033 22.3799C63.3374 22.3799 67.0943 26.1384 67.0943 30.7745C67.0943 34.4021 64.7942 37.4922 61.5732 38.6649Z" fill="#80B959"/>
<path fill-rule="evenodd" clip-rule="evenodd" d="M48.4522 46.5573C51.6101 48.3375 53.7953 51.6402 54.0127 55.47H54.0314V56.083V56.1011V56.1184V77.7571H32.1465V56.1184V56.1011V56.083V55.47H32.1652C32.3826 51.6402 34.5684 48.3375 37.7257 46.5573C35.8757 45.0174 34.6979 42.6976 34.6979 40.1022C34.6979 35.466 38.4548 31.7075 43.0889 31.7075C47.7231 31.7075 51.48 35.466 51.48 40.1022C51.48 42.6976 50.3022 45.0174 48.4522 46.5573Z" fill="#CD3539"/>
<path fill-rule="evenodd" clip-rule="evenodd" d="M59.5506 74.1365C55.4205 64.1424 49.1177 61.0607 38.9016 59.2029C33.9697 58.3475 30.8131 57.3604 26.1444 55.4527C23.2509 54.2689 19.5023 51.5716 19.9627 55.7159C20.4232 59.5977 30.6442 64.556 30.4939 65.0201C24.1136 67.8455 10.8025 54.4698 5.84985 47.8491L0.96092 40.0592C0.689505 39.7323 0.67773 39.5328 0.636187 40.1853C0.577334 41.0989 0.546875 42.0209 0.546875 42.9491C0.546875 66.4283 19.5722 85.4619 43.0413 85.4619C66.5104 85.4619 85.5351 66.4283 85.5351 42.9491C85.5351 19.4699 66.5104 0.43634 43.0413 0.43634C22.2234 0.43634 4.90406 15.4135 1.25657 35.1848C2.96884 38.6018 4.78635 41.5533 7.15985 44.5637C7.13631 44.0283 7.12246 43.4901 7.12246 42.9491C7.12246 23.103 23.2038 7.01475 43.0413 7.01475C62.8789 7.01475 78.9602 23.103 78.9602 42.9491C78.9602 56.7882 71.139 68.798 59.6793 74.8015C59.6392 74.5937 59.5963 74.3727 59.5506 74.1365Z" fill="white"/>
<path d="M100.186 40.6996V26.6437H104.194C105.759 26.6437 106.853 26.7157 107.469 26.8598C108.085 27.0039 108.619 27.2463 109.067 27.5837C109.572 27.9674 109.961 28.4585 110.233 29.0521C110.505 29.6478 110.639 30.3031 110.639 31.0207C110.639 32.109 110.371 32.9935 109.837 33.6751C109.3 34.3567 108.52 34.8083 107.495 35.0314L111.327 40.6996H107.004L103.782 35.1949V40.6996H100.186ZM103.782 33.2886H104.489C105.314 33.2886 105.917 33.1473 106.297 32.8654C106.677 32.5841 106.866 32.1415 106.866 31.5416C106.866 30.8372 106.69 30.3364 106.336 30.0378C105.979 29.74 105.386 29.5924 104.548 29.5924H103.782V33.2886ZM112.785 40.6996V26.6437H121.391V29.7303H116.518V32.1678H121.113V35.1755H116.518V37.5541H121.391V40.6996H112.785ZM123.923 40.6996V26.6437H127.617L132.929 33.8711C133.031 34.0187 133.198 34.3172 133.43 34.7626C133.667 35.2052 133.921 35.7358 134.203 36.3516C134.128 35.7684 134.072 35.251 134.036 34.7952C134 34.3401 133.984 33.9369 133.984 33.5864V26.6437H137.658V40.6996H133.984L128.675 33.4424C128.564 33.2948 128.393 32.997 128.161 32.5543C127.925 32.1089 127.673 31.5846 127.398 30.982C127.473 31.5714 127.529 32.0923 127.565 32.5474C127.601 33.0032 127.617 33.4064 127.617 33.7568V40.6996H123.923ZM140.665 40.6996V26.6437H149.272V29.7303H144.399V32.1678H148.993V35.1755H144.399V37.5541H149.272V40.6996H140.665ZM161.373 26.6437L163.138 33.3274C163.22 33.6259 163.299 33.9404 163.367 34.2681C163.44 34.5922 163.512 34.969 163.59 35.3916C163.685 34.8908 163.767 34.4807 163.832 34.1565C163.901 33.8323 163.967 33.5567 164.029 33.3274L165.68 26.6437H169.547L165.575 40.6996H162.025L160.289 34.6968C160.224 34.4876 160.118 34.0748 159.971 33.4583C159.909 33.1833 159.857 32.9706 159.817 32.8162C159.788 32.9506 159.742 33.1411 159.683 33.3835C159.535 34.0055 159.424 34.4412 159.349 34.6968L157.64 40.6996H154.079L150.113 26.6437H153.985L155.596 33.3634C155.675 33.7111 155.749 34.0547 155.821 34.4024C155.897 34.746 155.966 35.1034 156.028 35.4671C156.087 35.1983 156.149 34.9164 156.215 34.622C156.283 34.3269 156.385 33.9079 156.519 33.3634L158.284 26.6437H161.373ZM174.24 35.4505H178.049L176.618 30.8116C176.576 30.6702 176.513 30.4444 176.438 30.13C176.36 29.8155 176.261 29.4123 176.14 28.9205C176.059 29.2648 175.976 29.5959 175.894 29.9104C175.816 30.2214 175.734 30.5227 175.652 30.8116L174.24 35.4505ZM168.873 40.6996L173.723 26.6437H178.521L183.375 40.6996H179.565L178.855 38.1831H173.415L172.685 40.6996H168.873ZM184.714 40.6996V26.6437H188.546V37.4163H193.301V40.6996H184.714ZM211.106 40.6996V26.6437H215.115C216.681 26.6437 217.775 26.7157 218.39 26.8598C219.006 27.0039 219.54 27.2463 219.988 27.5837C220.492 27.9674 220.882 28.4585 221.154 29.0521C221.426 29.6478 221.56 30.3031 221.56 31.0207C221.56 32.109 221.292 32.9935 220.758 33.6751C220.221 34.3567 219.441 34.8083 218.416 35.0314L222.248 40.6996H217.925L214.703 35.1949V40.6996H211.106ZM214.703 33.2886H215.41C216.235 33.2886 216.838 33.1473 217.217 32.8654C217.598 32.5841 217.787 32.1415 217.787 31.5416C217.787 30.8372 217.611 30.3364 217.257 30.0378C216.9 29.74 216.307 29.5924 215.468 29.5924H214.703V33.2886ZM223.706 40.6996V26.6437H232.312V29.7303H227.439V32.1678H232.034V35.1755H227.439V37.5541H232.312V40.6996H223.706ZM234.843 40.6996V26.6437H238.676V32.109H243.785V26.6437H247.617V40.6996H243.785V34.9787H238.676V40.6996H234.843ZM254.317 35.4505H258.126L256.695 30.8116C256.652 30.6702 256.59 30.4444 256.514 30.13C256.436 29.8155 256.338 29.4123 256.217 28.9205C256.135 29.2648 256.053 29.5959 255.971 29.9104C255.893 30.2214 255.81 30.5227 255.729 30.8116L254.317 35.4505ZM248.949 40.6996L253.8 26.6437H258.598L263.451 40.6996H259.643L258.932 38.1831H253.492L252.762 40.6996H248.949ZM268.347 32.2662H269.114C270.06 32.2662 270.708 32.1609 271.062 31.9545C271.412 31.7453 271.59 31.3844 271.59 30.8739C271.59 30.3426 271.426 29.9727 271.095 29.7566C270.768 29.5433 270.125 29.4352 269.173 29.4352H268.347V32.2662ZM264.79 40.6996V26.6437H268.646C270.231 26.6437 271.338 26.6963 271.97 26.7975C272.599 26.8993 273.139 27.0759 273.594 27.3253C274.111 27.6134 274.507 28 274.78 28.4821C275.052 28.9662 275.186 29.5239 275.186 30.159C275.186 30.9584 274.982 31.5943 274.577 32.066C274.17 32.535 273.522 32.8917 272.631 33.1376C273.627 33.2131 274.41 33.5636 274.969 34.1863C275.533 34.8118 275.815 35.6437 275.815 36.689C275.815 37.4364 275.657 38.0951 275.34 38.6652C275.025 39.2353 274.57 39.6772 273.984 39.9889C273.506 40.2445 272.913 40.4274 272.212 40.5354C271.508 40.6442 270.358 40.6996 268.76 40.6996H264.79ZM268.347 37.8291H269.69C270.598 37.8291 271.239 37.7148 271.616 37.4883C271.993 37.2591 272.179 36.8795 272.179 36.3482C272.179 35.7587 272.006 35.3493 271.662 35.1131C271.318 34.8804 270.679 34.7626 269.749 34.7626H268.347V37.8291ZM194.641 40.6996V26.6437H198.472V37.4163H203.228V40.6996H194.641Z" fill="white"/>
<path d="M118.129 49.9657V44.0903H119.392V48.9592H121.582V44.0903H122.836V48.9592H124.162V50.8412H122.999V49.9657H118.129ZM131.108 44.0903H134.67V45.1869H132.344V46.2425H134.67V47.3224H132.344V48.8692H134.67V49.9657H131.108V44.0903ZM141.962 44.0903H143.225V46.3076H145.405V44.0903H146.659V49.9657H145.405V47.3882H143.225V49.9657H141.962V44.0903ZM153.662 44.0903H157.269V45.1952H156.079V49.9657H154.816V45.1952H153.662V44.0903ZM164.252 44.0903H165.571C166.284 44.0903 166.797 44.1492 167.112 44.2677C167.427 44.3861 167.677 44.5787 167.859 44.8433C168.041 45.1079 168.132 45.4251 168.132 45.7964C168.132 46.2072 168.012 46.548 167.773 46.8195C167.535 47.0903 167.211 47.2801 166.801 47.3868C166.56 47.4478 166.122 47.4783 165.487 47.4783V49.9657H164.252V44.0903ZM165.487 46.3894H165.886C166.199 46.3894 166.416 46.3693 166.538 46.3298C166.661 46.2889 166.757 46.2231 166.828 46.1303C166.898 46.0382 166.932 45.9259 166.932 45.7936C166.932 45.5657 166.834 45.3995 166.637 45.2956C166.495 45.218 166.228 45.1785 165.84 45.1785H165.487V46.3894ZM187.35 49.9657L185.541 45.6586L183.704 49.9657H182.386L184.906 44.0903H186.166L188.679 49.9657H187.35ZM195.584 44.0903H199.146V45.1869H196.82V46.2425H199.146V47.3224H196.82V48.8692H199.146V49.9657H195.584V44.0903ZM209.29 47.3882H208.876C208.277 47.3882 207.835 47.3605 207.552 47.3051C207.267 47.249 206.995 47.1291 206.736 46.9477C206.477 46.7648 206.294 46.5452 206.188 46.2861C206.082 46.0271 206.029 45.6835 206.029 45.2547V44.0903H207.292V45.2374C207.292 45.6371 207.37 45.9149 207.53 46.0721C207.688 46.2286 208.026 46.3076 208.543 46.3076H209.29V44.0903H210.544V49.9657H209.29V47.3882ZM218.201 44.0903H221.763V45.1869H219.437V46.2425H221.763V47.3224H219.437V48.8692H221.763V49.9657H218.201V44.0903ZM229.055 44.0903H230.317V46.3076H232.499V44.0903H233.752V49.9657H232.499V47.3882H230.317V49.9657H229.055V44.0903ZM246.143 44.0903V49.9657H244.907V46.2875L242.449 49.9657H241.382V44.0903H242.617V47.8883L245.113 44.0903H246.143ZM257.623 44.0903V49.9657H256.387V47.5925H256.077L254.759 49.9657H253.402L254.882 47.4083C254.026 47.1887 253.598 46.6761 253.598 45.8712C253.598 45.5838 253.643 45.3344 253.733 45.1224C253.823 44.9098 253.951 44.7297 254.119 44.5828C254.286 44.4353 254.478 44.3265 254.698 44.2552C254.919 44.1859 255.092 44.1451 255.223 44.134C255.353 44.1229 255.715 44.1097 256.309 44.0903H257.623ZM256.387 46.5126V45.1869H256.047C255.736 45.1869 255.512 45.2035 255.376 45.2374C255.241 45.27 255.129 45.342 255.044 45.4528C254.958 45.563 254.915 45.6994 254.915 45.8615C254.915 46.1033 255.002 46.2723 255.173 46.3693C255.344 46.4649 255.619 46.5126 255.997 46.5126H256.387Z" fill="#5DA2DA"/>
<path d="M129.055 57.1522C129.402 57.5879 129.809 57.8054 130.276 57.8054C130.586 57.8054 130.837 57.7264 131.029 57.5678C131.219 57.4099 131.315 57.1993 131.315 56.9375C131.315 56.6798 131.222 56.4665 131.036 56.2981C130.849 56.1284 130.462 56.0432 129.875 56.0432H129.592V54.9897H129.873C130.22 54.9897 130.482 54.9176 130.663 54.7756C130.842 54.6315 130.932 54.4397 130.932 54.1979C130.932 53.9762 130.856 53.801 130.706 53.6729C130.558 53.5433 130.359 53.4782 130.111 53.4782C129.819 53.4782 129.517 53.6091 129.208 53.8696L128.436 53.0938C128.85 52.7571 129.197 52.5556 129.476 52.4891C129.753 52.4233 130.011 52.39 130.244 52.39C130.807 52.39 131.279 52.5369 131.662 52.8319C132.044 53.127 132.235 53.5246 132.235 54.0254C132.235 54.2471 132.193 54.4632 132.106 54.6731C132.02 54.8851 131.781 55.1081 131.385 55.3436C132.196 55.6678 132.6 56.2205 132.6 57.0019C132.6 57.5796 132.386 58.043 131.956 58.3942C131.526 58.744 130.973 58.9193 130.299 58.9193C129.873 58.9193 129.492 58.8507 129.154 58.7108C128.817 58.5715 128.449 58.2716 128.053 57.8096L129.055 57.1522ZM140.62 52.5625H141.941L144.591 58.7641H143.228L142.69 57.4861H139.868L139.318 58.7641H137.955L140.62 52.5625ZM141.282 54.2111L140.349 56.3459H142.211L141.282 54.2111ZM150.267 58.7641V52.5625H151.354C151.985 52.5625 152.445 52.5985 152.738 52.6719C153.152 52.7717 153.481 52.9546 153.726 53.2205C153.97 53.4886 154.093 53.8038 154.093 54.166C154.093 54.4023 154.037 54.617 153.926 54.8096C153.816 55.0028 153.636 55.1843 153.386 55.3526C153.804 55.5293 154.109 55.7495 154.302 56.0162C154.496 56.2808 154.592 56.5946 154.592 56.9576C154.592 57.306 154.491 57.6225 154.291 57.9093C154.09 58.1954 153.831 58.4101 153.515 58.5507C153.198 58.6934 152.761 58.7641 152.204 58.7641H150.267ZM151.571 53.6853V54.9987H151.863C152.189 54.9987 152.432 54.9377 152.591 54.8158C152.749 54.6946 152.827 54.529 152.827 54.3205C152.827 54.1259 152.752 53.9721 152.602 53.8571C152.452 53.7435 152.223 53.6853 151.916 53.6853H151.571ZM151.571 56.0522V57.6413H151.903C152.454 57.6413 152.827 57.5796 153.019 57.4556C153.211 57.3316 153.307 57.1522 153.307 56.916C153.307 56.6493 153.195 56.4381 152.97 56.2836C152.744 56.1298 152.37 56.0522 151.847 56.0522H151.571ZM165.521 52.5625V58.7641H164.217V54.8816L161.623 58.7641H160.496V52.5625H161.8V56.5717L164.434 52.5625H165.521ZM178.091 53.6514L177.171 54.4369C176.547 53.844 175.845 53.5475 175.063 53.5475C174.404 53.5475 173.848 53.7504 173.398 54.155C172.946 54.5595 172.72 55.0575 172.72 55.6505C172.72 56.0633 172.821 56.4304 173.02 56.7505C173.22 57.0712 173.503 57.3233 173.868 57.5062C174.233 57.689 174.64 57.7798 175.087 57.7798C175.467 57.7798 175.816 57.7161 176.131 57.5879C176.447 57.4598 176.794 57.227 177.171 56.8897L178.062 57.7278C177.553 58.1753 177.072 58.4863 176.62 58.6588C176.167 58.8334 175.65 58.9193 175.07 58.9193C173.999 58.9193 173.121 58.6145 172.439 58.0028C171.756 57.3926 171.415 56.6078 171.415 55.6532C171.415 55.0347 171.571 54.4861 171.882 54.0054C172.192 53.5246 172.637 53.1388 173.217 52.8465C173.796 52.5542 174.419 52.4073 175.089 52.4073C175.656 52.4073 176.203 52.5154 176.73 52.7315C177.256 52.9469 177.71 53.2538 178.091 53.6514ZM188.922 52.5625V58.7641H187.618V54.8816L185.024 58.7641H183.897V52.5625H185.202V56.5717L187.835 52.5625H188.922ZM195.822 52.5625H197.093L198.696 56.8883L200.307 52.5625H201.575L202.729 58.7641H201.464L200.73 54.847L199.271 58.7641H198.115L196.663 54.847L195.913 58.7641H194.635L195.822 52.5625ZM211.705 52.4073C212.678 52.4073 213.516 52.7253 214.216 53.3605C214.918 53.995 215.268 54.7694 215.268 55.6823C215.268 56.5877 214.923 57.3531 214.23 57.9793C213.54 58.6055 212.701 58.9193 211.714 58.9193C210.681 58.9193 209.822 58.5972 209.139 57.9537C208.456 57.3102 208.113 56.5461 208.113 55.6609C208.113 55.0693 208.273 54.5235 208.592 54.0254C208.909 53.5288 209.348 53.134 209.904 52.8437C210.462 52.5528 211.063 52.4073 211.705 52.4073ZM211.686 53.5648C211.051 53.5648 210.518 53.765 210.086 54.1633C209.652 54.5623 209.437 55.0693 209.437 55.6851C209.437 56.3702 209.709 56.9132 210.254 57.3115C210.677 57.6239 211.162 57.7798 211.71 57.7798C212.328 57.7798 212.856 57.5768 213.291 57.1723C213.727 56.7678 213.945 56.2697 213.945 55.6768C213.945 55.0859 213.726 54.5865 213.286 54.1778C212.848 53.7692 212.314 53.5648 211.686 53.5648ZM227.51 53.6514L226.59 54.4369C225.966 53.844 225.264 53.5475 224.482 53.5475C223.823 53.5475 223.267 53.7504 222.817 54.155C222.365 54.5595 222.139 55.0575 222.139 55.6505C222.139 56.0633 222.24 56.4304 222.439 56.7505C222.639 57.0712 222.922 57.3233 223.287 57.5062C223.652 57.689 224.059 57.7798 224.506 57.7798C224.886 57.7798 225.235 57.7161 225.55 57.5879C225.866 57.4598 226.214 57.227 226.59 56.8897L227.481 57.7278C226.972 58.1753 226.491 58.4863 226.039 58.6588C225.587 58.8334 225.069 58.9193 224.489 58.9193C223.418 58.9193 222.54 58.6145 221.858 58.0028C221.175 57.3926 220.834 56.6078 220.834 55.6532C220.834 55.0347 220.99 54.4861 221.301 54.0054C221.611 53.5246 222.056 53.1388 222.636 52.8465C223.215 52.5542 223.838 52.4073 224.508 52.4073C225.075 52.4073 225.622 52.5154 226.149 52.7315C226.675 52.9469 227.129 53.2538 227.51 53.6514ZM232.654 52.5625H236.462V53.729H235.206V58.7641H233.873V53.729H232.654V52.5625ZM247.036 52.5625V58.7641H245.732V54.8816L243.138 58.7641H242.011V52.5625H243.316V56.5717L245.949 52.5625H247.036Z" fill="#5DA2DA"/>
</svg>
