<svg width="217" height="152" viewBox="0 0 217 152" fill="none" xmlns="http://www.w3.org/2000/svg">
<g filter="url(#filter0_d_307_1737)">
<path d="M39.167 50.7505C39.167 28.9705 54.017 14.1205 73.817 14.1205C93.617 14.1205 108.467 28.9705 108.467 50.7505C108.467 72.5305 93.617 87.3805 73.817 87.3805C54.017 87.3805 39.167 72.5305 39.167 50.7505ZM58.472 50.7505C58.472 64.1155 64.808 70.5505 73.817 70.5505C82.826 70.5505 89.162 64.1155 89.162 50.7505C89.162 37.3855 82.826 30.9505 73.817 30.9505C64.808 30.9505 58.472 37.3855 58.472 50.7505ZM114.434 73.5205V57.6805L137.699 16.1005H157.994L134.729 57.6805H150.569V42.3355H151.559H168.884V57.6805H177.794V73.5205H168.884V85.4005H150.569V73.5205H114.434Z" fill="white"/>
</g>
<defs>
<filter id="filter0_d_307_1737" x="0.167969" y="0.120483" width="216.627" height="151.26" filterUnits="userSpaceOnUse" color-interpolation-filters="sRGB">
<feFlood flood-opacity="0" result="BackgroundImageFix"/>
<feColorMatrix in="SourceAlpha" type="matrix" values="0 0 0 0 0 0 0 0 0 0 0 0 0 0 0 0 0 0 127 0" result="hardAlpha"/>
<feOffset dy="25"/>
<feGaussianBlur stdDeviation="19.5"/>
<feComposite in2="hardAlpha" operator="out"/>
<feColorMatrix type="matrix" values="0 0 0 0 0 0 0 0 0 0.242308 0 0 0 0 0.605769 0 0 0 0.09 0"/>
<feBlend mode="normal" in2="BackgroundImageFix" result="effect1_dropShadow_307_1737"/>
<feBlend mode="normal" in="SourceGraphic" in2="effect1_dropShadow_307_1737" result="shape"/>
</filter>
</defs>
</svg>
