<svg width="216" height="152" viewBox="0 0 216 152" fill="none" xmlns="http://www.w3.org/2000/svg">
<g filter="url(#filter0_d_307_1739)">
<path d="M39.167 51.0424C39.167 29.2624 54.017 14.4124 73.817 14.4124C93.617 14.4124 108.467 29.2624 108.467 51.0424C108.467 72.8224 93.617 87.6724 73.817 87.6724C54.017 87.6724 39.167 72.8224 39.167 51.0424ZM58.472 51.0424C58.472 64.4074 64.808 70.8424 73.817 70.8424C82.826 70.8424 89.162 64.4074 89.162 51.0424C89.162 37.6774 82.826 31.2424 73.817 31.2424C64.808 31.2424 58.472 37.6774 58.472 51.0424ZM116.414 64.4074H135.224C135.62 65.7934 136.313 67.0804 137.204 68.1694C138.788 70.0504 141.56 71.8324 146.609 71.8324C153.638 71.8324 157.499 67.9714 157.499 62.9224C157.499 57.8734 153.638 54.0124 146.609 54.0124C143.342 54.0124 141.263 54.8044 139.976 55.4974C139.283 55.9924 138.689 56.4874 138.194 56.9824H118.889L121.859 16.3924H170.369V32.2324H137.699L136.709 43.1224H137.699C138.59 42.4294 139.778 41.7364 141.065 41.1424C143.342 40.0534 146.609 39.1624 151.064 39.1624C165.815 39.1624 176.309 49.5574 176.309 62.9224C176.309 76.7824 165.419 87.6724 146.609 87.6724C132.848 87.6724 125.522 81.9304 121.265 76.0894C118.79 72.6244 117.206 68.7634 116.414 64.4074Z" fill="white"/>
</g>
<defs>
<filter id="filter0_d_307_1739" x="0.167969" y="0.412354" width="215.141" height="151.26" filterUnits="userSpaceOnUse" color-interpolation-filters="sRGB">
<feFlood flood-opacity="0" result="BackgroundImageFix"/>
<feColorMatrix in="SourceAlpha" type="matrix" values="0 0 0 0 0 0 0 0 0 0 0 0 0 0 0 0 0 0 127 0" result="hardAlpha"/>
<feOffset dy="25"/>
<feGaussianBlur stdDeviation="19.5"/>
<feComposite in2="hardAlpha" operator="out"/>
<feColorMatrix type="matrix" values="0 0 0 0 0 0 0 0 0 0.242308 0 0 0 0 0.605769 0 0 0 0.09 0"/>
<feBlend mode="normal" in2="BackgroundImageFix" result="effect1_dropShadow_307_1739"/>
<feBlend mode="normal" in="SourceGraphic" in2="effect1_dropShadow_307_1739" result="shape"/>
</filter>
</defs>
</svg>
