<svg width="24" height="25" viewBox="0 0 24 25" fill="none" xmlns="http://www.w3.org/2000/svg">
<path d="M5.05078 2.96555L5.99414 2.98215H6.00977L6.02539 2.98312C5.93895 2.97897 6.48796 2.94449 6.91113 3.1384C7.35518 3.34193 7.66862 3.71797 7.90625 4.19406L8.00391 4.40402L8.00488 4.40695L8.87109 6.44894C9.02719 6.81665 9.17339 7.16018 9.28809 7.42551C9.34553 7.5584 9.39428 7.66979 9.43164 7.75363L9.48828 7.87863L9.48926 7.88058L9.5625 8.03195C9.72959 8.41369 9.86394 8.99329 9.53223 9.63644L9.53125 9.6384C9.39223 9.90662 9.24694 10.2426 8.89551 10.6335L8.89648 10.6345C8.73317 10.8194 8.41993 11.2032 8.1709 11.4577C8.5382 12.0428 9.39643 13.3025 10.585 14.3308L10.9082 14.6023C12.4938 15.8875 13.7513 16.28 14.3125 16.5495C14.6765 16.1399 15.4328 15.2709 15.6885 14.8991H15.6895L15.7988 14.7517C16.0681 14.4196 16.4317 14.1671 16.9111 14.114C17.3517 14.0652 17.757 14.2147 17.9531 14.2839H17.9521C18.2384 14.3846 19.0162 14.7419 19.7109 15.0671C20.4371 15.407 21.1695 15.7573 21.4209 15.8796H21.4199C21.6089 15.9712 21.8877 16.0968 22.0635 16.1902C22.2384 16.2831 22.5639 16.4653 22.7764 16.8073L22.833 16.9099C22.9524 17.1523 22.9786 17.4068 22.9893 17.5368C23.0059 17.741 23.0021 17.9727 22.9805 18.2165C22.9423 18.6454 22.8452 19.1617 22.6631 19.7136L22.5791 19.9519C22.253 20.8365 21.4119 21.5199 20.709 21.9568C20.0695 22.3542 19.3306 22.6788 18.7168 22.8171L18.4619 22.864C17.5922 22.9891 16.4511 23.055 15.1807 22.7146L14.9248 22.6413C14.1972 22.4171 13.2451 22.1123 12.0283 21.6032V21.6023C9.38716 20.4968 7.23786 18.6724 5.73438 17.1179C4.97832 16.3362 4.3747 15.612 3.94434 15.0622C3.72903 14.7872 3.55688 14.5554 3.43066 14.3825C3.36797 14.2967 3.31631 14.2253 3.27832 14.1726C3.25898 14.1457 3.24397 14.125 3.23242 14.1091L3.21875 14.0905L3.2168 14.0876C3.08435 13.9158 2.53909 13.2141 2.02637 12.2351C1.52142 11.2708 1.00009 9.94885 1 8.54269C1 5.76554 2.54419 4.35548 2.99414 3.87766L3.12207 3.74875C3.77001 3.13668 4.52069 2.96565 5.0332 2.96555H5.05078Z" stroke="white" stroke-width="2"/>
</svg>
