<svg width="37" height="36" viewBox="0 0 37 36" fill="none" xmlns="http://www.w3.org/2000/svg">
<path fill-rule="evenodd" clip-rule="evenodd" d="M30.9386 5.27427C27.6221 1.95389 23.2115 0.124506 18.5126 0.122559C8.83017 0.122559 0.950069 8.00244 0.946174 17.6875C0.944876 20.7835 1.75366 23.8057 3.29095 26.4696L0.798828 35.5722L10.1111 33.1294C12.677 34.5291 15.5657 35.2667 18.5055 35.2676H18.5128C28.1942 35.2676 36.0752 27.387 36.0788 17.7015C36.0808 13.0077 34.2553 8.59443 30.9386 5.27427ZM18.5126 32.3009H18.5066C15.8868 32.2999 13.3174 31.5958 11.0754 30.2658L10.5425 29.9492L5.01648 31.3989L6.49146 26.0111L6.14419 25.4588C4.68262 23.1341 3.91084 20.4472 3.91214 17.6886C3.91517 9.63861 10.465 3.08939 18.5185 3.08939C22.4183 3.09069 26.0842 4.61132 28.8407 7.37108C31.5972 10.1308 33.1144 13.7991 33.1131 17.7005C33.1096 25.7511 26.5602 32.3009 18.5126 32.3009ZM26.5212 21.3659C26.0824 21.1461 23.9244 20.0846 23.522 19.9379C23.1199 19.7914 22.827 19.7185 22.5347 20.1577C22.2419 20.597 21.4009 21.5858 21.1447 21.8785C20.8885 22.1715 20.6328 22.2083 20.1938 21.9884C19.7548 21.7688 18.3406 21.3051 16.664 19.8098C15.3593 18.646 14.4784 17.2087 14.2223 16.7694C13.9665 16.3298 14.2201 16.1151 14.4148 15.8737C14.89 15.2836 15.3658 14.665 15.512 14.3723C15.6585 14.0793 15.5852 13.8229 15.4752 13.6033C15.3658 13.3837 14.488 11.2233 14.1223 10.3442C13.7657 9.48867 13.4042 9.60421 13.1346 9.5908C12.8788 9.57803 12.5861 9.57543 12.2933 9.57543C12.0008 9.57543 11.5252 9.68513 11.1228 10.1248C10.7206 10.5642 9.58681 11.6259 9.58681 13.7864C9.58681 15.9468 11.1596 18.0339 11.379 18.3268C11.5984 18.6198 14.4741 23.0532 18.877 24.9542C19.9242 25.4068 20.7416 25.6766 21.3793 25.8789C22.4308 26.213 23.3874 26.1658 24.1438 26.0529C24.9872 25.9268 26.7404 24.991 27.1065 23.9658C27.4722 22.9405 27.4722 22.0618 27.3623 21.8785C27.2528 21.6955 26.96 21.5858 26.5212 21.3659Z" fill="white"/>
</svg>
