<svg width="41" height="51" viewBox="0 0 41 51" fill="none" xmlns="http://www.w3.org/2000/svg">
<path d="M38.1804 32.664C36.9582 31.0438 35.2807 29.8925 33.3291 29.3349L31.9595 28.9436C31.7567 28.7314 31.4469 28.6337 31.1466 28.7113L30.8345 28.6222C30.2205 28.4468 29.7809 27.9015 29.7312 27.2724C31.7976 26.9767 33.3913 25.195 33.3913 23.0481V19.1611C35.1621 18.5756 36.406 16.9146 36.406 14.9736C36.406 13.5372 35.2374 12.3686 33.801 12.3686H33.5098L33.6853 9.61885C33.8653 6.79756 32.6678 4.03926 30.4822 2.24043C30.1432 1.96143 29.7024 1.8458 29.2744 1.91738C29.0347 1.43838 28.6238 1.04453 28.0881 0.835449C27.0669 0.436914 25.9878 0.234863 24.8809 0.234863H23.8538C21.7223 0.234863 19.6877 1.03076 18.1248 2.47607C17.8278 2.75068 17.8097 3.21406 18.0843 3.51113C18.3589 3.8082 18.8224 3.82627 19.1194 3.55166C20.4108 2.35752 22.0922 1.6998 23.8538 1.6998H24.8809C25.8049 1.6998 26.7048 1.86816 27.5555 2.2002C27.9397 2.3501 28.1376 2.77666 28.0063 3.17148C27.8296 3.70166 27.8155 3.74375 27.6425 4.26279C27.6425 4.26299 27.6424 4.26318 27.6423 4.26328L27.2963 5.30107C26.8799 6.55029 26.0472 7.64053 24.9517 8.3709C23.6763 9.22109 22.192 9.67109 20.6593 9.67217C19.5069 9.67295 18.4354 10.1104 17.6421 10.9036L17.0423 11.5034L16.8904 9.12158C16.8249 8.09609 16.9789 7.0958 17.348 6.14834C17.4948 5.77139 17.3083 5.34678 16.9314 5.2C16.5545 5.05322 16.1299 5.23975 15.983 5.6166C15.5359 6.76426 15.3492 7.9749 15.4284 9.21494L15.6296 12.3687H15.3374C13.901 12.3687 12.7323 13.5373 12.7323 14.9737C12.7323 16.9153 13.9767 18.5765 15.7481 19.1616V23.0482C15.7481 25.1955 17.3423 26.9774 19.4093 27.2727C19.3595 27.9019 18.9198 28.447 18.3056 28.6225L17.9929 28.7118C17.6982 28.6352 17.3856 28.7272 17.1785 28.9442C16.6123 29.106 16.2731 29.204 15.812 29.3347C13.8604 29.8925 12.1827 31.0438 10.9605 32.6641C9.79026 34.2154 9.14817 36.0499 9.09563 37.9847H5.06643C4.80442 37.9847 4.55383 38.1096 4.39611 38.3187C4.2384 38.5279 4.18733 38.8031 4.2593 39.0547L4.33879 39.3328H1.79221C1.53039 39.3328 1.2799 39.4576 1.12209 39.6667C0.964377 39.8758 0.913107 40.1509 0.98508 40.4029L2.34504 45.1626C2.45608 45.551 2.86106 45.777 3.25051 45.6656C3.63947 45.5545 3.86467 45.1491 3.75354 44.7602L2.62141 40.7979H4.75735L4.96858 41.5372C5.07092 41.8957 5.40285 42.1461 5.7757 42.1461H11.0878C11.3177 42.1461 11.5341 42.0382 11.6726 41.8547C11.811 41.6712 11.8552 41.4334 11.7921 41.2124L11.6737 40.7979H14.5799L16.8577 48.7703H4.89924L4.72688 48.167C4.61565 47.778 4.21037 47.5527 3.82141 47.664C3.43244 47.7751 3.20725 48.1805 3.31838 48.5694L3.62033 49.6264C3.72268 49.9849 4.05461 50.2353 4.42746 50.2353H39.2185C39.6762 50.2353 40.0486 49.8629 40.0486 49.4052V38.2431C40.0487 36.2136 39.4027 34.2843 38.1804 32.664ZM26.5581 45.266C26.5401 45.3328 26.5321 45.4007 26.5327 45.4655V48.7699H22.6064V45.4573C22.6064 45.3846 22.5957 45.3144 22.576 45.248L20.3363 36.2891C20.9941 36.5914 21.7168 36.7528 22.4608 36.7528H26.679C27.4225 36.7528 28.1448 36.5916 28.8024 36.2896L26.5581 45.266ZM17.0433 34.2033L16.0571 33.0199L17.5029 30.9958C18.0573 33.2137 19.3938 38.5595 20.2272 41.893L16.0891 36.0996L16.9986 35.1901C17.2664 34.9223 17.2858 34.4943 17.0433 34.2033ZM17.4942 18.5827C17.4939 18.5778 17.4953 18.6002 17.491 18.5355C17.491 18.5353 17.4909 18.535 17.4909 18.5346L17.408 17.2346C18.0527 17.6564 18.8738 17.878 19.8511 17.878C22.1904 17.878 23.6346 16.6085 23.907 14.3615C23.9072 14.3598 23.9076 14.3579 23.9079 14.3562C23.9568 14.0582 24.2412 13.8334 24.5698 13.8334C24.8927 13.8334 25.1754 14.0527 25.2296 14.3442C25.2598 14.5995 25.3051 14.8422 25.365 15.0719C24.9215 15.0105 24.5313 15.3552 24.5313 15.7974V17.3721C24.5313 17.6305 24.3211 17.8406 24.0627 17.8406H23.8759C23.4714 17.8406 23.1435 18.1686 23.1435 18.573C23.1435 18.9775 23.4714 19.3055 23.8759 19.3055H24.0627C25.1288 19.3055 25.9962 18.4381 25.9962 17.372V16.4322C26.69 17.3714 27.8105 17.8778 29.288 17.8778C30.2656 17.8778 31.0867 17.6562 31.7316 17.2343C31.7296 17.2655 31.6488 18.5324 31.6464 18.5675C31.3955 22.2729 28.2914 25.1763 24.5698 25.1763C20.8539 25.1766 17.7552 22.2841 17.4942 18.5827ZM19.8511 16.4132C18.076 16.4132 17.2131 15.4768 17.2131 13.5505C17.2131 13.1073 18.3106 12.4854 19.8511 12.4854C21.4369 12.4854 22.4892 13.1265 22.4892 13.5505C22.4891 15.4768 21.6262 16.4132 19.8511 16.4132ZM31.9265 13.5505C31.9265 15.4768 31.0634 16.4132 29.2879 16.4132C27.5124 16.4132 26.6493 15.4768 26.6493 13.5505C26.6493 13.1265 27.7017 12.4854 29.2879 12.4854C30.8069 12.4854 31.9265 13.0969 31.9265 13.5505ZM29.7265 25.7854V24.9059C30.6074 24.2385 31.357 23.4044 31.9265 22.4492V23.0481C31.9265 24.3866 30.9832 25.509 29.7265 25.7854ZM33.801 13.8335C34.4296 13.8335 34.9411 14.345 34.9411 14.9736C34.9411 16.1796 34.2227 17.2237 33.171 17.6785C33.2568 16.3351 33.3321 15.1526 33.4163 13.8335H33.801ZM29.5512 3.37158C31.3745 4.87217 32.3735 7.17275 32.2233 9.52559L32.0865 11.668C31.6732 11.4356 31.1774 11.2572 30.6224 11.1471L29.8312 10.0394C28.7061 8.46436 28.4503 6.46895 29.0321 4.72666C29.0321 4.72646 29.0322 4.72627 29.0322 4.72607C29.3362 3.81416 28.7128 5.68447 29.4755 3.39619C29.478 3.38867 29.4838 3.37109 29.5098 3.36367C29.5336 3.35674 29.5446 3.36611 29.5512 3.37158ZM25.7644 9.58975C26.3901 9.17266 26.9469 8.66133 27.4165 8.07998C27.7734 9.8251 28.703 10.9654 28.7461 11.0403C27.2292 11.1533 26.0188 11.7381 25.4832 12.5673C24.9045 12.3011 24.2281 12.3036 23.6549 12.5666C23.2031 11.8675 22.2717 11.3424 21.0814 11.1272C22.7539 11.0504 24.3649 10.5228 25.7644 9.58975ZM14.1973 14.9736C14.1973 14.3449 14.7088 13.8335 15.3374 13.8335H15.7232L15.9685 17.679C14.9162 17.2245 14.1973 16.1802 14.1973 14.9736ZM17.213 23.0481V22.4492C17.7827 23.4048 18.5327 24.2393 19.4141 24.9067V25.7856C18.1569 25.5097 17.213 24.387 17.213 23.0481ZM20.8789 27.1531V25.8015C21.9996 26.3401 23.2526 26.6414 24.5697 26.6414C25.8872 26.6414 27.1405 26.3399 28.2615 25.8009V27.153C28.2615 28.4611 29.126 29.6278 30.3713 30.0126L29.3452 34.1168C28.6597 34.863 27.6969 35.2878 26.6787 35.2878H22.4605C21.4414 35.2878 20.4781 34.8624 19.7926 34.1152L18.7671 30.0132C20.0137 29.6292 20.8789 28.4619 20.8789 27.1531ZM6.24748 40.6808C6.1135 40.2119 6.02668 39.908 5.89563 39.4493H9.76487C9.89875 39.9181 9.98576 40.2226 10.1167 40.6808H6.24748ZM15.8366 39.8638C15.7468 39.5493 15.4594 39.3325 15.1323 39.3325H11.255L11.0216 38.5155C10.955 38.2823 10.7796 38.1028 10.5601 38.0257C10.6508 34.8001 12.7542 31.9391 15.7862 30.8789L14.5364 32.6287C14.3427 32.8998 14.3565 33.2674 14.5697 33.5233L15.4897 34.6273L14.6145 35.5025C14.3613 35.7557 14.3282 36.1548 14.5364 36.4462L21.1413 45.6933V48.77H18.3812L15.8366 39.8638ZM38.5837 48.7699H34.7396V44.1096C34.7396 43.7051 34.4116 43.3771 34.0071 43.3771C33.6027 43.3771 33.2747 43.7051 33.2747 44.1096V48.7699H27.9976V45.6925L31.0669 41.396C31.3021 41.0668 31.2259 40.6094 30.8967 40.3742C30.5674 40.139 30.11 40.2152 29.8749 40.5444L28.9111 41.8937C29.5446 39.3596 31.1495 32.9396 31.6356 30.9957L33.0815 33.02L32.096 34.2034C31.8536 34.4944 31.8732 34.9223 32.1409 35.19L33.0503 36.0994L31.9116 37.6934C31.6765 38.0226 31.7527 38.48 32.0819 38.7151C32.4111 38.9503 32.8685 38.8741 33.1036 38.5449L34.6031 36.446C34.8112 36.1546 34.7782 35.7555 34.525 35.5023L33.6496 34.627L34.569 33.5229C34.7821 33.267 34.7956 32.8995 34.6021 32.6285L33.3519 30.8782C36.4538 31.9616 38.5837 34.9283 38.5837 38.243V48.7699Z" fill="#007BC0"/>
</svg>
