<svg width="51" height="51" viewBox="0 0 51 51" fill="none" xmlns="http://www.w3.org/2000/svg">
<mask id="mask0_307_1540" style="mask-type:luminance" maskUnits="userSpaceOnUse" x="0" y="0" width="51" height="51">
<path d="M0.5 0.234867H50.5V50.2349H0.5V0.234867Z" fill="white"/>
</mask>
<g mask="url(#mask0_307_1540)">
<path d="M36.46 18.9722V16.6236C36.46 10.5709 31.5532 5.66416 25.5004 5.66416C19.7108 5.66416 14.9697 10.1533 14.5684 15.8408" stroke="#007BC0" stroke-width="1.5" stroke-miterlimit="10" stroke-linecap="round" stroke-linejoin="round"/>
<path d="M31.7628 11.9267C31.7628 11.9267 26.6428 15.5837 19.2311 16.535C18.7901 16.5917 18.4548 16.9587 18.4548 17.4034V17.4065C18.4548 18.2712 17.7538 18.9722 16.889 18.9722H15.7149C14.5675 18.9722 13.6507 19.9596 13.7679 21.131C13.8699 22.1498 14.8028 22.8864 15.8265 22.8864L16.8892 22.8863C16.8891 27.642 20.7445 31.4973 25.5003 31.4973C30.2559 31.4973 34.1113 27.6421 34.1113 22.8864L35.2855 22.8863C36.433 22.8863 37.3498 21.8988 37.2324 20.7273C37.1303 19.7087 36.1974 18.9722 35.1737 18.9722H34.1113C33.2466 18.9722 32.5457 18.2712 32.5457 17.4065V16.8898C32.5457 15.0134 31.0245 13.4923 29.1482 13.4923H29.1452" stroke="#007BC0" stroke-width="1.5" stroke-miterlimit="10" stroke-linecap="round" stroke-linejoin="round"/>
<path d="M31.7635 7.22974C31.7635 3.77105 28.9597 0.967139 25.5009 0.967139C22.0421 0.967139 19.2383 3.77105 19.2383 7.22974" stroke="#007BC0" stroke-width="1.5" stroke-miterlimit="10" stroke-linecap="round" stroke-linejoin="round"/>
<path d="M21.5865 30.7146V33.8658C21.5865 34.8055 21.0265 35.6547 20.1627 36.0246L13.0002 39.0921C11.5605 39.7087 10.627 41.1241 10.627 42.6901V49.5024" stroke="#007BC0" stroke-width="1.5" stroke-miterlimit="10" stroke-linecap="round" stroke-linejoin="round"/>
<path d="M29.4141 30.7146V33.8658C29.4141 34.8055 29.9741 35.6547 30.8379 36.0246L38.0004 39.0921C39.44 39.7087 40.3736 41.1241 40.3736 42.6901V49.5024" stroke="#007BC0" stroke-width="1.5" stroke-miterlimit="10" stroke-linecap="round" stroke-linejoin="round"/>
<path d="M21.5859 20.538V21.3208" stroke="#007BC0" stroke-width="1.5" stroke-miterlimit="10" stroke-linecap="round" stroke-linejoin="round"/>
<path d="M29.4141 20.538V21.3208" stroke="#007BC0" stroke-width="1.5" stroke-miterlimit="10" stroke-linecap="round" stroke-linejoin="round"/>
<path d="M23.1523 25.2349C23.7315 25.7124 24.5628 26.0178 25.5009 26.0178C26.4389 26.0178 27.2702 25.7124 27.8494 25.2349" stroke="#007BC0" stroke-width="1.5" stroke-miterlimit="10" stroke-linecap="round" stroke-linejoin="round"/>
<path d="M18.4551 36.9772L24.632 41.0952C25.158 41.4458 25.8431 41.4458 26.369 41.0952L32.546 36.9772" stroke="#007BC0" stroke-width="1.5" stroke-miterlimit="10" stroke-linecap="round" stroke-linejoin="round"/>
<path d="M15.3234 49.5024C14.4588 49.5024 13.7578 48.8015 13.7578 47.9368V44.8055C13.7578 43.9408 14.4588 43.2398 15.3234 43.2398H21.586C22.4507 43.2398 23.1517 43.9408 23.1517 44.8055V47.9368C23.1517 48.8015 22.4507 49.5024 21.586 49.5024" stroke="#007BC0" stroke-width="1.5" stroke-miterlimit="10" stroke-linecap="round" stroke-linejoin="round"/>
<path d="M18.4551 43.2397V37.76" stroke="#007BC0" stroke-width="1.5" stroke-miterlimit="10" stroke-linecap="round" stroke-linejoin="round"/>
<path d="M32.5449 36.9772V44.8054" stroke="#007BC0" stroke-width="1.5" stroke-miterlimit="10" stroke-linecap="round" stroke-linejoin="round"/>
<path d="M34.8942 47.1539C34.8942 48.451 33.8428 49.5024 32.5458 49.5024C31.2487 49.5024 30.1973 48.451 30.1973 47.1539C30.1973 45.8569 31.2487 44.8055 32.5458 44.8055C33.8428 44.8055 34.8942 45.8569 34.8942 47.1539Z" stroke="#007BC0" stroke-width="1.5" stroke-miterlimit="10" stroke-linecap="round" stroke-linejoin="round"/>
<path d="M42.7224 33.063C40.1284 33.063 38.0254 30.9602 38.0254 28.366V26.0176C38.0254 24.2882 39.4274 22.8862 41.1567 22.8862H44.288C46.0174 22.8862 47.4193 24.2882 47.4193 26.0176V28.366C47.4193 30.9602 45.3164 33.063 42.7224 33.063Z" stroke="#007BC0" stroke-width="1.5" stroke-miterlimit="10" stroke-linecap="round" stroke-linejoin="round"/>
<path d="M49.7673 44.0227V38.1057C49.7673 37.4319 49.336 36.8335 48.6967 36.6205L45.6057 35.5901C45.2859 35.4835 45.0703 35.1844 45.0703 34.8474V32.5192" stroke="#007BC0" stroke-width="1.5" stroke-miterlimit="10" stroke-linecap="round" stroke-linejoin="round"/>
<path d="M40.3742 32.519V34.8472C40.3742 35.1842 40.1586 35.4833 39.839 35.5899L38.8086 35.9333" stroke="#007BC0" stroke-width="1.5" stroke-miterlimit="10" stroke-linecap="round" stroke-linejoin="round"/>
<path d="M39.8945 35.6397L42.2519 37.4077C42.5302 37.6164 42.9129 37.6164 43.1912 37.4077L45.5485 35.6397" stroke="#007BC0" stroke-width="1.5" stroke-miterlimit="10" stroke-linecap="round" stroke-linejoin="round"/>
<path d="M8.27705 33.063C10.871 33.063 12.974 30.9602 12.974 28.366V25.2348C12.974 23.9378 11.9226 22.8862 10.6255 22.8862H5.92852C4.63154 22.8862 3.58008 23.9378 3.58008 25.2348V28.366C3.58008 30.9602 5.68301 33.063 8.27705 33.063Z" stroke="#007BC0" stroke-width="1.5" stroke-miterlimit="10" stroke-linecap="round" stroke-linejoin="round"/>
<path d="M1.23242 44.0227V38.1057C1.23242 37.4319 1.66367 36.8335 2.30303 36.6205L5.39404 35.5901C5.71377 35.4835 5.92939 35.1844 5.92939 34.8474V32.5192" stroke="#007BC0" stroke-width="1.5" stroke-miterlimit="10" stroke-linecap="round" stroke-linejoin="round"/>
<path d="M10.627 32.519V34.8472C10.627 35.1842 10.8426 35.4833 11.1622 35.5899L12.1926 35.9333" stroke="#007BC0" stroke-width="1.5" stroke-miterlimit="10" stroke-linecap="round" stroke-linejoin="round"/>
<path d="M11.1052 35.6397L8.74785 37.4077C8.46953 37.6164 8.08682 37.6164 7.8085 37.4077L5.45117 35.6397" stroke="#007BC0" stroke-width="1.5" stroke-miterlimit="10" stroke-linecap="round" stroke-linejoin="round"/>
<path d="M4.36289 44.0227C3.93057 44.0227 3.58008 43.6722 3.58008 43.2399V41.6743C3.58008 41.2418 3.93057 40.8915 4.36289 40.8915H7.49414C7.92656 40.8915 8.27705 41.2418 8.27705 41.6743V43.2399C8.27705 43.6722 7.92656 44.0227 7.49414 44.0227" stroke="#007BC0" stroke-width="1.5" stroke-miterlimit="10" stroke-linecap="round" stroke-linejoin="round"/>
<path d="M5.92969 40.8914V36.1944" stroke="#007BC0" stroke-width="1.5" stroke-miterlimit="10" stroke-linecap="round" stroke-linejoin="round"/>
<path d="M45.8535 40.8914V36.1944" stroke="#007BC0" stroke-width="1.5" stroke-miterlimit="10" stroke-linecap="round" stroke-linejoin="round"/>
<path d="M47.4184 42.4568C47.4184 41.5922 46.7174 40.8912 45.8527 40.8912C44.9881 40.8912 44.2871 41.5922 44.2871 42.4568C44.2871 43.3215 44.9881 44.0225 45.8527 44.0225C46.7174 44.0225 47.4184 43.3215 47.4184 42.4568Z" stroke="#007BC0" stroke-width="1.5" stroke-miterlimit="10" stroke-linecap="round" stroke-linejoin="round"/>
<path d="M12.9739 27.5833C10.0602 27.5833 8.01406 26.2818 7.1584 25.6166C6.8792 25.3995 6.49434 25.3974 6.21143 25.6096L3.58008 27.5833" stroke="#007BC0" stroke-width="1.5" stroke-miterlimit="10" stroke-linecap="round" stroke-linejoin="round"/>
</g>
</svg>
